<mxfile host="Electron" modified="2024-06-23T22:07:28.121Z" agent="Mozilla/5.0 (Macintosh; Intel Mac OS X 10_15_7) AppleWebKit/537.36 (KHTML, like Gecko) draw.io/24.6.1 Chrome/124.0.6367.207 Electron/30.0.6 Safari/537.36" etag="562km7HFoW0qqRJrnD7N" version="24.6.1" type="device">
  <diagram name="Page-1" id="fLFjE6v8nQq2MMjqWC0G">
    <mxGraphModel dx="1242" dy="907" grid="1" gridSize="10" guides="1" tooltips="1" connect="1" arrows="1" fold="1" page="1" pageScale="1" pageWidth="850" pageHeight="1100" math="0" shadow="0">
      <root>
        <mxCell id="0" />
        <mxCell id="1" parent="0" />
        <mxCell id="g41ISQYCcfccL3WQsRhH-7" value="" style="edgeStyle=orthogonalEdgeStyle;rounded=0;orthogonalLoop=1;jettySize=auto;html=1;" parent="1" source="g41ISQYCcfccL3WQsRhH-2" target="g41ISQYCcfccL3WQsRhH-6" edge="1">
          <mxGeometry relative="1" as="geometry" />
        </mxCell>
        <mxCell id="g41ISQYCcfccL3WQsRhH-8" value="yourwebsite.com" style="edgeLabel;html=1;align=center;verticalAlign=middle;resizable=0;points=[];" parent="g41ISQYCcfccL3WQsRhH-7" vertex="1" connectable="0">
          <mxGeometry x="0.0263" y="4" relative="1" as="geometry">
            <mxPoint as="offset" />
          </mxGeometry>
        </mxCell>
        <mxCell id="g41ISQYCcfccL3WQsRhH-2" value="Users accessing your site" style="shape=image;verticalLabelPosition=bottom;labelBackgroundColor=default;verticalAlign=top;aspect=fixed;imageAspect=0;image=data:image/png,iVBORw0KGgoAAAANSUhEUgAAAEoAAABMCAYAAADKiSFsAAAAAXNSR0IArs4c6QAAAIRlWElmTU0AKgAAAAgABQESAAMAAAABAAEAAAEaAAUAAAABAAAASgEbAAUAAAABAAAAUgEoAAMAAAABAAIAAIdpAAQAAAABAAAAWgAAAAAAAACQAAAAAQAAAJAAAAABAAOgAQADAAAAAQABAACgAgAEAAAAAQAAAEqgAwAEAAAAAQAAAEwAAAAAo7WRfQAAAAlwSFlzAAAWJQAAFiUBSVIk8AAAEGdJREFUeAHtXHl0VNUZv/e9yYSwSWRHQrZRlmwosplM7B9atbaCqBQXqlhFKrZW2orHo0KperR1b3twaVWoCyAtUGjrUrcsLCJqhoRFZ5KwVhACAlln3rv93Te5d94Mk5k3kzc5/sE9J7nb93333t9dv+/eN4SccWcQOIPAGQS+uwhQO6o2qsA9Ls1BriGMlBJK8+H3pYS1MEIaIX8z0/U19bXVn9pRVqQMV9FFU5miTkf6JMpINiM0g1B2gjDqRR2qdD9dXb+z4qtIvkTj3QLKNa60gDnURyklV8UtmLGPA4QtbPRUbYlLa4Egp8h9sYPSxwglU2KRMzh03lusgzzQHcDUWIXEyssvct9FHcpagDQ2Fp3MozRHofS2zGFZjmOH9n4k0xMPqK5i91OKQp8HSCPjsVPuCCmgCpk7YEjWgWOH934RjydaflIjChV9Gr30S7NARlg1IWyNrjGPrupHHCwtkzA2jir0KnTqJcH6BjkwJVf5aiquR0w3y7AQduQXl69Dy38gaCEbMujbjLL1NKDvDjj042nEMUTX2XiqKNeggRMFreHrbIl3e+WisDQLkYSBMkaSQv8oZKOiu6nO5nlrqz4SaZE+gL0Avb8UDZpkynvcW1NxnykeN5hf7F4KwOdJQsYqGNHm+zwba2VaRCC/uOxyQpWlaGiOyAK2N/s8VctF3IqfEFB5Y8vPVZysDg1O48IxMj481tw+vcm75UTcwlyu9Pw+I5ajwJmCVmNaeYOnulLEY/l5he4rFZVukDQ6edm7veIOxAMyrYvAOWMmDcxw9tog1jOM/tY21nHeAc+W/V2wnJasnJYSIwHwPBYCiX3JTjZfbQkkLtPrbfcFjs5GJTeKIlSqPCHCcXxVUcnvTTTvAaS5iMcFifMc2PXJ0VMtjC8Be3mcYmfsRZ2/42GrzjJQo4rK8jCGrhaCdU2/q75+27cibsmvq+sgTLsjuK5wDjopt7jUHY83r6TsCtCOM+gY6/AzwkeSFo/PnP+1t/IbLGa/EmkA66bcwslDRTyebxkoB6HT5ILMyOcNtdXvxRMeLZ+vJ6jkv0QeRpUEX6RF+goj/JwUdJSs2uOpaBDRRPwGT+VqbDC+Th4HUdJ/aJXfMlDYaSYLoTrR14lwMj6GguTHOmde4KOKY0SRZWssxBuVOE6ibuJXCJNy47AR60ARmi2EYUTsFuFkfEp1yU9ZSG5Xsihlo2SeTr6U4SQCqLuZPyQ3jizLQGERdgpZ2F7j73KCOIrPNCr5zXKjkAaTGE0XeSzgl7wiLRGfUVPdKZFy48mwDBQEHZfCFDpMhpMKmPipSW4XsjA9Q2U7HZYX4OjiqJk/JDc6sUy1DBROvjsFF6ZLTP1K0HXlU5WF+Bnd1RWdTDeVjQqHeCWB9QDOcZIfWqBsUzwJloFSdPKxEIaFffrIkVMzRDxBH2oX+bHgwXol5Yq0SB8dI2kUQrnqk5TLy5twFoCS6o9CQ22KJ9AyUCfpiX9jCnSem+jgXmc77oknPFo+VIrZ8kyEA2Mr86+KRmdOCzD/Cpy9UDwcpZNdRe5p5nyrYdqv9/3g78fpIe2Qt6blA6u8loE65PE0Q4eVOh4KWISDYJnVgjhdduGUsdC7nhM8aPvrVtSIxu2bdqGBawUf9uqXcsZMyZFxCwFXifsyoCwPnIDqSUK2+S2wGiSWgeLUp9iJx9AVDQYnpU5KlPWG0mkkxP6XW+CelKam/RdD/yxOCZCO6XrHwthcoVytvWMBlEt0Fnd0sMOZ9kFuobs4GI/9P6+kdAYMeX9H2Z1mJbbDpzU9G5srPBe8iTluCWCUVOI80ptzosE61qxl7Zr2yL7ajeLUK4VmjS4dkZ6u/AYJd2JUGEcMzCEN1scrvTWV70hCC4HcYve16NlVQkPgyi0sF89iy38aJ/7DkSJyiqaOUanjIaTPCvGQbzXdP8UYpZEMMeIJA8VlBa2LZL2Y70I+QPMANA96/gjAyET+OCB5oaikQQddDWk3ebdXvSX4EvFh5rkFNq6XwOMQfLyzMMq2wAS8G+ZgbPl0CPLOh/YbblRkrEnTyBUNdZWfCF6rflJAceH5Be5SqtL3URnLhzY0CJ2vz/LWVsddwGM1ANP9J5Qqy2LRnJZnTFtW7vVUfnZanoWEhIHKKZg4THWkLyZMuRmjp5eFMsJIeO+j0DV+3f/gntrNls8xXEhwKqU9ggk/HaM0ofWV8/OpirUKozHwSLSpymm6cgkBlV9UNhf1ewqjqE+kQL7dIu0zDP9DqAyOEYyPtOF8+qGQcyPpEQ8QXX/C2/r1Ym6ripIfSjKMfsOXYF1cgEQ55QQBpnkjpnMN1j1MeeUUysb6SWFPZ4UANEvQSZ+Ro1hn58McvVKmxQlYAmpwQUHf/o6B3Dp5tVkeKuglTH+1Q9dXRFvIBS23+yg0fTpAvB0VnyDSuQ+APw342VV7dlb+z5wuwtlj3cMdaWQD+C4QadznfPi3TNPbVjfWbf3anGcOczsakL0O9vPbUH+XOQ+j+03txL5bGxsb28zp0cJxgUJBmU5K/4ORMdkk4ICu6w/WbzfszrCaWHe5heXfVxTyJKZtIecC2Ftbv2n+3sGD21qiSRkxYkLvjEF9Pgb9hQY9I7VMZ/fV11ZKm1Y0vihpqquk7AaMNG6lHSHyMR0/OtbcMS2epTYmUEOLi/v0IwMqMdXOl4IZW6mdODmvsfELywql4A35E9JcRRlLmKLM0gKtU2ONCM4TXBd7bcaUXuvTjt5LuKU0SWeoMX17v4ARKtUo3lntR/0X79+/qbUrsbGAorgaWo2enCGZGfmt11OxWMa7GeAdETzxxxeUCG18aYTkFZctUqiyWNIy8gbadqOMRwS6BAqC7oagZwS9Ttii+prKJSKeCt/o7Qzn4A5Y6lr99PCR3dUnU1GOkInrrz9gZP1axLEh341rLKliiXTuRwUqv7A8C5vvDuT2DRKz13CKhjJrv+OXC7Cbz8G0uhTlYacKOWM3I+RdPcD+mswhMSSpyxDNLylfARCCV2iMnfT7yehoG0vUswhA4nf6BkhY7PY0NXfM77KoJDP4uwX06NsqVSvQX3MiQeJi0YAc/M1VHXQLaNfye8Uki+uKjZ1ix2/F7tlgEMCygB328WjEp42o7OLyXAclXyHDUCCZps/w1VaticacbJqrsHQmU5VXcC7CeSfcdR4KMSOiHWbZCSwBN9bXVIUuQsPZk4rlFpf9CKP6n5yZaw+4PBmLi9ndZmGnjag0wn4hQcJuYDdIeUVlc4iqrgwDiZH1OmPXtgX8A301lb19noqMU81sCOp8Par+bqjCtD+MeOu4chxK636owVO1HueUzVwSegiqpHJXpNTIEUVdJeX7QHQOJwS2Cd/RRxZgjnP7lcK4fhi0IiDvAK7Vr493rc7PXqrKXkMzBnN5GHUtARIo21Oz6XOz/O6EMbW5heHNThlH8C5iGMLyjBg2onKKy/gdWxAkVKa9SUtKw++iwirMuC9IkBir93ewifFA4rIaaiveDbT7UTd2kMf5aMSLleeNIE+wwbU3BdahB051ihqEDc18wA6/10NvXyTLhJ061gFM0lkMwI41B00cZ5BzU0tA71JtiSaycdfmRj2gTcdO2NnLdJKrqMy2KdjZ1g9F2Uwl5SLM/bARhQVUnsBh9q02E3Y3jAb+TMjAbe2fvDuq60Tcql9ft3Er1oNXBD1T6J0ibIcPs8ZGIQdrkgmLSKAIldsv3vPtEkzd9blSjPkvlVqqB5YmKxMNkLyYgmWDRpcalwXJyjPzUS10g430XHNemMkCi2QmCjfy0bC/wCAvK2Vmih+mL5sfiamqc7zkwSMJX90mr4wnGOCGNyy8h1G/IWB1DHCywiOEbBJi8kvcj6MFc0Q8ER+DI81Eb2wcIh4GFECSdiYUNoAvm0k5RsJ6GQeT4cLMhinYmJTMMCa6F1EOFGaiwncn6XB86ItqhzVSZsYJmFsL25bTTB62RqER/zBnpiKMdVBuucnKR4MCyfJa5YPROmzHDxtROOjdjfuyp3U17bQTs9UCOJ1C2prM9DCyfSN7i0WxOJqJrYQpyRJkusIw80LO72cPM4X8OZSSeEjR/C18lzVzyvqbE+0OG0q2Svh0MVSEjnZ95L7d1caZKNGyoESPhn5obDRc3YBt7Ozu2cas1SBs6lljSZzKV1uxD4e5nZwTizB1OtVbE5cS5FCI8lPBi17+pCdA4uX1CFC8IOyo8vwDc9O9I8+bamgAPM+qyy+Y6gLUPxf0WEekTJGWKr/HgPq2XX++86aGD6t+6b0c67jV0mrDcnLGD6AOB3+Mb1yRAfg9vtaDr1rl7y5djwHFrZVo3HxRYczACf3oWdXB18YiNbrPH3eo/ftBuw+qQHxt0jU6N+41V3RxSaUaNqekOJNgwjcwOzOHjsKlDnUH2ekwldB5mUOzBw0cOupw06G95isryh92DBye/QAemb8IHuPcZPAxwm9hlidRhaRZemTXi6ydq7h8MUbXQ2h8WPk4x+Fmhx3AoRGGBoY1jPY38yIfZzB9oa+mCk92etaFnaN6qmg/IctgRb0E5ZWaywRqXBsYEFQIwjAMkjH2IdNI2EHQzJ/KcJTapK44vtOlZzgexhaIRxZCqUm4vABG1stt7W338083EuZOkqHHgIIJ+AZ8YwclO2I6MdKGabYZeuYW6IQNlOhNOG1rjKlQ0Fk+KjgRI6wU+RnmNho7KGPzfNsr15rTUxXuCaBUaPv887HbwxvBanBR8NzxZv/qeNfZxtsHNXMGZCwA0CVhchh7BhYFpGOcptClFqiCAme+OvBNLNkzRBv4SMDmvgDvFrh9OuHG8ZGJWcvfLpisBux13DveAnkpU5ZTejxwDR+7HA2aiQYYDsefd5pbyKX7diX/XTE+dd2e3m/UcqeTYGThQ2/D0WIcO7Jx/EjZNEwZUHkl5fcBpHuCDcHQYWS5z1M561TTXmHAF1kJ+5DRgjPXCoCTi+loTEX44wcMzToOsLYkLNACQ0qmXnbJ1PMdJG0rhBsdgfm1Bo+2+EUA3lra6vCNsZu/nbqsU2oAPx0wxbe9aputpUBYKlQYFR9evyhAwljagSc1N6Isu0HiWASgQ16H0VrLI3D4rFDhb+FtHwC2A4VXMDMx5S40qs0XV0Zm23nt1SlXelyH1LTAbCQYCznKnor357xjbHW2A4XfNlgoasgPhsm+whUyrPiNdRu/wHuBFwStqtD7EbZ1VNkKFH9SbTrnBNpY++9E5VPt+9vYo5jmfqMcvC93FZZdbGeZtgJFVcIXbMNB6d1g5TsXQd9dn5uWcd20RsjBaxk88LDP2QoUqjVNVA2fXrwhwj3l48ciVsqyGLtchm0I2AYU/xEGWC5zeZ24Xa1N1963oX6JiTjZ9j4vmzPhyDCKf4eTmICuqW0DKj3NGbqrp7R+f92msCurrqtgXw7/HQYoz18Kic50WizC3fXttEdlhSrDDvHflArFey6EnZbfIY4xSmRklF0l2wgUDG6dDr1a6nSQhF+rCH67fICWaZcs26Ye1oSU6Y3JNhZ1sk0bsG1EaVrra6raCz9LQkYn2zA7+XDnt0vT2v5mp8wzss4gcAaBMwh8VxH4P8KPsVKZtukbAAAAAElFTkSuQmCC;" parent="1" vertex="1">
          <mxGeometry x="40" y="230" width="74" height="76" as="geometry" />
        </mxCell>
        <mxCell id="g41ISQYCcfccL3WQsRhH-10" value="" style="edgeStyle=orthogonalEdgeStyle;rounded=0;orthogonalLoop=1;jettySize=auto;html=1;" parent="1" source="g41ISQYCcfccL3WQsRhH-6" target="g41ISQYCcfccL3WQsRhH-9" edge="1">
          <mxGeometry relative="1" as="geometry" />
        </mxCell>
        <mxCell id="g41ISQYCcfccL3WQsRhH-11" value="A alias record" style="edgeLabel;html=1;align=center;verticalAlign=middle;resizable=0;points=[];" parent="g41ISQYCcfccL3WQsRhH-10" vertex="1" connectable="0">
          <mxGeometry x="0.2344" relative="1" as="geometry">
            <mxPoint x="-30" as="offset" />
          </mxGeometry>
        </mxCell>
        <mxCell id="g41ISQYCcfccL3WQsRhH-15" value="" style="edgeStyle=orthogonalEdgeStyle;rounded=0;orthogonalLoop=1;jettySize=auto;html=1;" parent="1" source="g41ISQYCcfccL3WQsRhH-6" target="g41ISQYCcfccL3WQsRhH-14" edge="1">
          <mxGeometry relative="1" as="geometry" />
        </mxCell>
        <mxCell id="g41ISQYCcfccL3WQsRhH-6" value="Route53" style="shape=image;verticalLabelPosition=bottom;labelBackgroundColor=default;verticalAlign=top;aspect=fixed;imageAspect=0;image=data:image/png,iVBORw0KGgoAAAANSUhEUgAAAHoAAAB4CAYAAAA9kebvAAAAAXNSR0IArs4c6QAAAIRlWElmTU0AKgAAAAgABQESAAMAAAABAAEAAAEaAAUAAAABAAAASgEbAAUAAAABAAAAUgEoAAMAAAABAAIAAIdpAAQAAAABAAAAWgAAAAAAAACQAAAAAQAAAJAAAAABAAOgAQADAAAAAQABAACgAgAEAAAAAQAAAHqgAwAEAAAAAQAAAHgAAAAAzuYkvAAAAAlwSFlzAAAWJQAAFiUBSVIk8AAAGENJREFUeAHtnQm4XUWRgCshbAFkDWuAJCQsYRXCFoEkQBAUURBEMWJYlHHGceabUWfRz2Uc5xtncB0ZwGGcMAMBVAyyagyQhQACCYQlIWwJGEgg7GBYhan/dcpTr1+fu7x7zn3v3Xvr++495/Tp06erqru6uqq6zyBROPfD777LsQOtSYEv/mrQoMGtiVoHq5gCHUbHFGnR6w6jW5SxMVodRscUadHrDqNblLExWh1GxxRp0esOo1uUsTFaHUbHFGnR6w6jW5SxMVodRscUadHrDqNblLExWh1GxxRp0esOo1uUsTFaHUbHFGnR6w6jW5SxMVodRscUadHrDqNblLExWv2C0ZtvL7LhpnHVir/eameRs84PP87Lhg3fIwJu/QH6nNHv/aDImf8pcvYFIjvuXR5JaEgnflVks+3Cj/MyG9dO+yhOFwbcwLGvoU8ZvcMeIhPPDCRYb8PAiBHvLZ4kXWV/ReQ9w7KyOT9R07hXNIDDR1zZ4Lj97kW/pb7y+ozRQzcTOf5LIoPXySq87vqB2fsdl6U1erbeUJGTviay3a6hpHffEeEHkMY98hQF1B1pAS4G4PihL4uAc19BnzAaxE/4O5GNtwhor3lJ5KWnwzn3jjonNIINNmmMLIjp0/5NBMlhMFOHCX4G3CPPZttaSu+O1BVmUndrvOAEbgC4ct/uhdTm/fcJoyednRH/nT+KXHuuyHRl/KpHMsR3e5/IGeeJ0EPqJQ6xrYyLp39fZMvhoUwCmm/8icj9s8Lvpv/Snr02yJk8p/8gPFNvXCx1o47UddfxWf3BZboyFtzAERg+VmTSWeG82f+DeGEz47r3Olrk/Z/P0JwzTeSuq8L1OusGQux7bHafs1efF1n0a5Glt4i88FT3e/5qqCpcu2oDOeCE7j307TdFbvihyEPzfW6R3Q4TOfYLIkPWy9JfXCWy4OqQ13pjdjc7Q5vmeepqksnu3nODyOyfivzxrZAy7iMiE6baXZHf/Dg0tiyl3DPiupvKaMbEU78tAkOBB+eJXPfdcO7/Rx6gIvCzIptu41PDOeLwmWUirzwr8uZrYSyEwUyXttpJJO6Rzz4R3vHs4z3LIoXnPvi34Vmfg3GcZ1frc6+p+H3rjaC4bbKVyDajVLHb2ucO59Rtlmrayxf2vMc7dj88pL+tDeBnXxFZ+VDPfGWkNJXRG20uMkWZaq0fZl2m4prelgJ62T7vFznoJBGerRdef1Xk9p+L3H2dis63Kz89eEgQ24ecIrLBxpXzpu7+4QWRO34pcu9vKuPzie+IbD0ylICUukSZz7NlQ9MYvY4S8tR/yTTfNS+LXPpFkZefqY4iTBh9kMgeE0SYm1aaDjEWPrkkSIrFs5Xo2gvrgSGqKY+dGHoeSlol3QBp8sS9Irzn0TurNybqgRSYomM2hhSAHn3FP6qIr9IQQ+7e/zeN0cf+lciek0JFYcYvvi7y+/vrrziE31LF85Y76lRFxfW6G4Qe9PorYexevVxF7Ov1l5t6grKHjQiWLTRqJAxlM24/93v9qVg3JSv1fF7ajnuJnPzNrBE9cJPIr3+Ul7uYdBit/aVcQDEyJvMmlJTeMJlnIexqFfn8ygaY+tSD4Vfku8AdGhz5mVDqnkcGnWPhNUW+pWdZg3smFZey834iR3w6K+++34YxM0tp7hnSAGMGP877CtAb7puVvX3CVBFoVSaU1qMxVhyv47CNc4ydaKRJGCRyzF+IjBoXplBMt9Cqi4L1NxI5+GSR/T+kGv9ajCEs06g7rhR54w9FvUkErZzpFFOvx+5S48x5Wva7PcufdYHIFjsEewI0glaXfknkxZU98xaRoiQufh6NSRFrkxkrYBoaZt689PBPqXb90QwdlJPFs7XVz2xsCgLR9z1Of6q952nTaOeLVFtedENjjYup497HBGXOGhMY0ZDm/V+Gmz9Dz2AmQj2B51aokUWZjaJXJJSjjGnTOemrIsyFAeafl/+DjkOPhev4n7klc8w8eHl1MF4gEbA2vfpcXs6gMDEvxgs2St+/g1qigqUge2bFA+F8+J5ZGmdYyZ5crL1wgeoQ9+kc+vH8qRL5N95SZNvR4R1YxLzDhPsesI5h7EnBNruEGYnZxpECM9TWkJICqedrSSuF0e87TeSQj2Wvr4TkFsNDizYkUVQQY942nZUUzpiardG5Jz2Rlk9+JAjz802U+LHBxJ5HU7718sw6hgVt/MeDBm95/BGDySvaqGhYvAdFkPcgGXBODF07RfLP2DmNkvxo2ACNHYn2vPbYFCDmEd0Gt12hdb3Mrho/lqJ1jzk0qxjzZFpoHtDrjckQ4yqda7+5Ri1P2sqxVY8+WITx1QMErkRknxdiL787iOauerixEnPoQ7eK7DIuGGZwLZo+QRk0GHpppZ7q30XDe/SOoGw+/Wio9zk/DfiB48j98xlN3ZBc9i4kRJGMpp5DfGWLOF94rcjkz4WSMBDgpfrlt1QSaQ+J4ZHbRQ6bopVQkyjEgNgwAEIxt4TwiFiUNJiPWM4baykbxmILxxDxxH0iy5SAMCAXlPEYO/hR7kh9z04q9hlvsWV7xsdlUC7inbrCKIYE3m8ALtaIMXk+rLimgAZ1wt9nTCYPNCwaCmc0ZsDBWnncdQAIH3G6yJxpXZfd/rANL7w6U8QQ+/QyG58gHNYnfgaIaCxL9HSMGuRhzospEVFbzdxp5cRHGLdkdvhxD4scQwHmV94D0xHhSJzXXg6OlriMP12rnjL+E3+66tLu86yATD9H6AzAgJkJNCwaCmc0FcR7A4FsrD7gwypC7xF5XH8xYCPGAwTjmG5g7nzkd3Gu7BobMb+ygQZDQ+RXL4ADuABM3e5UHFPAFA+DkgFjM9p/GVCawWS+KhOMjwCaL+LcuwPDnUCIu6+3K/XtfiA7H6hnHgdwS83ToQU0sVkBtCp6XPb0K43RiN8bfpCNkbgcMSSkAFFl4xuOC5tXpvL297RNVIEDBwCc8sQwtDA3LMMGtCoTymO01hoDyfzpWfURU4x3MWBQeXxRSKWFe809ztvfr8cckvVScEpZ+KCBF9nzL803JhWFb6mMppJEhtg4h2a79+R01buUsLW3djkwnWcgpPq6e5x83aGBzR6gDZa5sqF0RjOt8tOFsRPSKPmojO12qzy1SZfQ96lo5tTdwONkaRzHTsyu8Fqlpp5ZjmLOSmc01SQgzyJJthmtY9O2PSuPJm0Gfeafw0b0zNPfU6izzZ3BJTU7AHdsAgA08V6skFrOf1MYzfzTxmDQIBoyBYQXGRBcMNDAuz49Lh4Pjzs0KSpQwr8jdd4URvNicyZwvu0Y/nuCtwXj5hxo4GPDPS4eD6xuBp4mllbWsWmM9lGYODNSgGXLoDcBgfZsXx0t8JH3e1x8fcyQQtrq5f5OuedNYzRGewPTOO3ajt4uHTszLE9/Pvo6E8eWAr/65BVHk1TeItOaxmjGaYM8RpvCRj4cHQMNfMABjowU+Mbw5uupHOWklWLrTlXVgva5l+d48MytNQQ2z/8c1yE1han1WSsrVYbd4+jr7Jnu83jcPU18njLOm8bojTfPqv9ajljzMdteAmRPdj8jwN9cot3v9Ly68Mye0x3CeCygvucT3VMwbFx0Tve0+MrX2ePi8/nhaaPN1Ji0yt8t77xpohtfskHe+inCcwxwBVaDDdTj1Z/A1znPXv/8U1mNm2kraFqP3nnfDMG8NUdeI81rDFkp3aNPWMP1TiK4wfL7nmRpcy/uXoal23G/Y7NdGLwdwO7HR1/nzde6KeM8qzQowqyDOD8wETcDmsJoxNiI/TN0Un5p7mI1M8ibh9p9jqbYEIbEgr16Ia8elLPXURmTH75NQ5UvqF66rzOBgykw1y33CKWCNl7kp54pIq0popux1EyDhN74lm9IMG+2Ho3G6tdKW574aIxO+XvjvPVc76KBA5P/PDyxbKGucVZpUU0RIzd1Nm0bXFK2AHCHBgA0gTbNgNIZjWY5TiNMDLyDw9I4eq/PyqXZ2mKfJz4vg9HEqNnCgxWLRa7+1/xZQlwf1kMjmg08TpbG0dMA2uRp6P6ZRs9LZzS7AVjLxmjy4Nx0lW3tMHcJGqwFbD6eGn9reT7OM2xk2GSG6I+ntXfO+FbmjInz5l37IECPk88PDcyABG1YZFA2lMporEAWNwYixE5ZJIlHDDE3fK+QgohcOt/fzT+PezTXEC4V3JBfSriDV+mjX9dxf2hYLXnlN3s3dhLFamIenFL7jEEDH0d26Knqn1ZalQmlKmNEQlqve/7JfAc7a6IsdurRu2pfHG6MRtz+5WXd105jaybc984Z6v6sMlclIP8UZSzzWoAA/LGTQjgvjgdvCAk58v9xTYIDAYLgBG43Xtgz/70zNXb9+KCXQCMWE7CvSllQWo+ml7LmyWDOtKylWxpHHAF7qoZrcPe1dlb9aJYtNNfYQEGoLorO6T9Uoh9SuSxWVFj8Fjn3OSbsf8Y65s9cpPU7svLz8V2PA3u2eGeH5aVXz51mVyESNtX7sxyNnZXWo4+YmkWJEJf92J3piiK2zPT5lCphPoY7/USWOu9ijbBcowGIamljigLxENv4svc4IkyP0GxZ28WSGBavpwCtHcXrLS0DrRlDDOM1PY1ezoY2xJLbpjqpMnwaOGArwCUJbgxfqekZCwdYaMCiAaJTJkwNq1V8WUWdl8JoFreZxsl4xcLvFOCupMUb3Drdzmo73n9jOh8L2FmLzWJzlvZ0EfuU9MY4lMDc1s9vSbN9TSZ8WkWwyj1WlBADlheIzzMeCIo8+RshhRgxNG0/z7a80OZT3w3vYFoH7VjsVzSUIrrppQYP3Jzvd2XrRFv20hXgv8ieKuYIsU35Y+1TPYDzYcGvNFxXx1KAKRBSolbAGGPWNHC0rTDj59m9YfHsLNXTLktt/KxwRmPTNnMnS1FZH5wCrEJGfJgx539SuRpLQyS/9EwoA8XNlLd6SkW8GtQb3kRv9Q3NlhJbeXb83S9Uf1FaAdDO+wVCauP/hTPabwbH0pqUFQxROOGMrPKIWR+Bkt3p+zPvI0ec1wPgBG4G4GwKpKVxhEZ+GZKnoc/XyHmhjAYJ1h0bsHVECtBibTcEeh0B7GUAc9NNtw4l41nqjanUIjYppdbx2eMCbvZecPYb9/h8frMals2mGoTPX+95oYzefrds7TIrFJJKxSCRA0/Mqoloz/NPZ7l6ntViNpwwNdMB4mB6CFmNmLga/TIi1j/XC+DGQkKDA0+ys+5H5uu2qoMtL6BlkVCnMKr8ar9dBM6AFLDw3JwXmC79ArtU/ry0k/9J7+i4xi4JOAkwirCkFfPl1qPCRqxWH3ozKxU9QMyp/xFWeGIgYStICI0ShnUNFyJ2aNv8DdMm+XoD7EJE42a6Bu6jDkxPN9H8bSULde/t+1J1LJTRXswle7PWYHenubIArbdxzWiytHpjZgo50rBUXfXttLUNwrOtBL9KwIzg+u9XylH5HjiivbPdJYANPGVXYC5vjKaxFgkqwIoDb9lhh50UYBww8A4AS6v1SNDAkjm6OE17awpY4If58+IvZG5Bn4/7M88LBhpzLfr7nD/9WNh54cpvqCHljfhufdf4tA1staVd25F9Vgw8LS2tkWOhPXqoijyDlOKCGLRd6AkWWPWw5a7/iMQwqcFSVUyY66lVjHLZYCal7fu3YMhBI+bHeE9ECCIbSYHyhHGjKK8Y7wVX6oalDmvbhqooxrqJebTIv9EW/BcHhTIaQhukoiZsvCNPkbvaEh/dSIw0TgumQmVP8da8mNnU+XBLzGh0DANPS0tr5Fio6DYrFxUyQ0Fe5erxCOWVMdDSq+HsaeZpWQSehTLa92IUnRh8L0bU9sZvHJc5UK7B1W/m7mlhOHiaeVra/UaOhTLaLxNNKROMfSYecTTkGQ8aQai/PouRyLx00MCMKL6+nmaVdkj0z9R6XiijvXcm7ztPfj0wHiGPXK2VHmj5wPGwT2a19jTIUrt/Gytv1uLz13NeKKNNC6YC5qaMK8Pc+YWVIRUnw8f+Ofh+43ytco1fGxzNoQLueRvYeJp5WhZBi0IZ7a1h+FVTa5xxElx3bmYoIfritO+EbZZT21MVgWRflAEuB58Sdjm2CBPGXXD3jhKrG70emhnE/nFL7+2xUEYzd8XpDxAvZZagkJL9Y7Jk20ibp0IUxDjfqGSPLjZXHahA3cHhzPODuLZxGVxnaM+2mO4YP2zgFjeH6bOaHSB+vtp1ofNoXrbgmmysQQG55/rwKYG4Ihjx+YDKMZ/PdsHFiXDUZ8OWkliSsJzRslM9IC6vL69pqGyFydZTY8YHo4ivD/b4mT/OD1JkoZ9XTH3cty+nkXPtd8VvzD7le7q8ZlSo1urlYWd5+9hXSO3+TzAeEaNYpmLguZVqVSKon95ALFbK6hY/V+Y10yTiwbDtswvRdmPUuqaziBiYhdx2eRalEt/nmuc++e/Z5jyYXS/5m1TO3qeVsl831YEA7MBvk/68D5n5qmOGJMSW8Fg+VFYJsG+v0F5CuM4y7fGNWMUqvcfuYWIdqT2WvTuJ1a62jTQfRsO/vPjm6qHC/sNnGEymfzlfvFt96j2WxmgqwjcsGHcN0DR/q+NWLUAoDR4etNBawmpYVYGYXzK3uN5OryVGjF0MvVcur/7MjQk7olGbrSAvb1e6ytLJf9Z97dUtl4gQVlQ0lMpoKvsBFUE+oA7nP/tw1+OaxCa8w+5K7NHh0wbsaOQtSJ4oxF3R03FULNV3+d0FfL68c0KF+Pjp3keHnmvKUZwfxQonBYvqaGRPqgLKZw1rBaxkhBD7j5bSSK/XIa8MKJ3RiG4WrPm9PXHF4dvN+8ZGLYgSpIcYRQHi+xmm2fpncSCw9SJOf79A3eexc5wthAWz4MC8a3aPI25MvrOBYshw4d2JPl8t50iH4/66+yceUDyv0XHalvLUUk49eUpnNJUhXOfIs7tvz8xYBANu/1k2xaqn4j4vKzQQ8QQ0wHjTCywPrkF2LiRkyZtouc/89iAdYlgLbct67TnqiF1g6bwgkhu1PSOFCOSnQfk6Miu56aLymAw+TWG0EQ5iTlKG+6UzEI+pBEtY8j6VZM/XckRrZ5rC6kT7PoU9R69k03M+TArwwVHyxdIAnzD5iEdPOR7C07X/E7LEGqv99RfjfrMyOG8RQu1vqJ6zqYymOqxYPFoVEP9pAdLpPSgyII1orDQVI381QIrw4RW+pRXvPGDOBDNJWlmMt/R6wm4bFaFMmRhaaNxIG9+DeR9DAJ9UaNZGNU1ntBGVpSd8P2PYCEvJjojaJxYFYrAWa/XyxggPwXmX35oxe5ta8vQd7HxPA+st0LDAhRg2ho+d9u05FFA2uLB6pDfRpDzfW+gzRluF6XWINR9HZvfsCOO7DCXKEMyr9Wq4Vg4964ipWQQqy3jnTguSxPLUeuwKx9WZAB46DCYoWPEY78tiIR3Dkw/S9/fLPu9zRhuCGPT5PjTTjVqWvaCxQzR+9JJagZ5nuxAw361HRNNjaZj8aonQRDNnOkkAY9F261rxtXz9htFWIY7skIu4JVKSOXOsVPm8nENQ/LtYoapNo+Jnq10z7cJax7y6WgNEiWNuzZJZhoFqi++rvbvI+/2S0TGCiEkYzo8YbsbBlF2ZeCy2xLhrRn29PH4f1/TecScG40lqRQjKImP7igfWGk6UwUXMGlJ1KSJtQDA6RnTI+rrS4YAQdO8/eejzMf/FmZC3cZ3P689R2HCuoFDFgK6wbIE2plvCl+v6u0fN1x9GD/EJA+GcQHrGPn6YEnENsvrQhy6xHJcf2i2f9K1myWLn/MOn6FRIZwMx4BvGTo8tvR7TbVxOX18POEZ7gkH4xbPDD82X9U1+JSKMo9djCmU3BQt0sDKwVo3XqRemTz/XRUnrGgauKt6TZO9u9lF9KMX7o5uNhH8fGvyhHw/atXdKMIbO/u/g4SI/zpaJZ6ltW3UAAxi8ZJ5az67oe03Z6lTEcUCO0bUiTlDexDOC9u6feUTFOa07FtNsQ8GuC/VM13y5/fl8QI7RtRKUvUF+/rXgOZukPde2VWb/Lw9Mi27Wnl7rboX+2YF0PqDH6FoIjQsQ2zKfNsaJYeIc3zXOi7n/O7CVrFpoQJ6WZzRIorTd+BPttSq2J39OLWLK5Fnnq2FDxXW7QFsw2piJxara5xIsb6sd1frbgXagQIfR7cBlxbHD6A6j24QCbYJmp0d3GN0mFGgTNDs9usPoNqFAm6DZ6dEdRrcJBdoEzU6P7jC6TSjQJmh2enSH0W1CgTZBs9OjO4xuEwq0CZqdHt0mjP5/OJSBS2EtcFoAAAAASUVORK5CYII=;" parent="1" vertex="1">
          <mxGeometry x="230" y="208" width="122" height="120" as="geometry" />
        </mxCell>
        <mxCell id="g41ISQYCcfccL3WQsRhH-13" value="" style="edgeStyle=orthogonalEdgeStyle;rounded=0;orthogonalLoop=1;jettySize=auto;html=1;" parent="1" source="g41ISQYCcfccL3WQsRhH-9" target="g41ISQYCcfccL3WQsRhH-12" edge="1">
          <mxGeometry relative="1" as="geometry" />
        </mxCell>
        <mxCell id="g41ISQYCcfccL3WQsRhH-18" value="Elasticbeanstalk Origin" style="edgeStyle=orthogonalEdgeStyle;rounded=0;orthogonalLoop=1;jettySize=auto;html=1;" parent="1" source="g41ISQYCcfccL3WQsRhH-9" edge="1">
          <mxGeometry relative="1" as="geometry">
            <mxPoint x="600" y="440" as="targetPoint" />
          </mxGeometry>
        </mxCell>
        <mxCell id="g41ISQYCcfccL3WQsRhH-9" value="Cloudfront" style="shape=image;verticalLabelPosition=bottom;labelBackgroundColor=default;verticalAlign=top;aspect=fixed;imageAspect=0;image=data:image/png,iVBORw0KGgoAAAANSUhEUgAAAHgAAAB6CAYAAAB0rJfZAAAAAXNSR0IArs4c6QAAAIRlWElmTU0AKgAAAAgABQESAAMAAAABAAEAAAEaAAUAAAABAAAASgEbAAUAAAABAAAAUgEoAAMAAAABAAIAAIdpAAQAAAABAAAAWgAAAAAAAACQAAAAAQAAAJAAAAABAAOgAQADAAAAAQABAACgAgAEAAAAAQAAAHigAwAEAAAAAQAAAHoAAAAAYBrnGwAAAAlwSFlzAAAWJQAAFiUBSVIk8AAAFiRJREFUeAHtnQn4XcMVwE/sW+xBBI1dYifE1oi1Grtamtp1oaotii60qtXW1u3rV6Wr2lq0qCU+FAlij11iiSS2ECFiib3S8/uP4573/m9/c+97ue75vvfm3pm5c2fmzJw528wVKSDXPdDnrN1nz851Cz/ljZvrU97+3De/QHDOUVwguEBwznsg580rZnCB4Jz3QM6bV8zgAsE574GcN6+YwQWCc94DOW9eMYMLBOe8B3LevGIGFwjOeQ/kvHnFDC4QnPMeyHnzihmccwTPk6f29V1apN/K+hsoskR/kUWWCr8FFxGZZ379zRda++H7IvzeeUNk1msib74qMuN5kVefE3l5kt6/kp9emaMRvNBiIitvLLLS+vpbV5G5ZGOImW9BEX48v9SKvZ8B4S+MF5nygMikcToQXu+dZ06JmeN8suZfWGSNLUTW+qzICmuLzDV3ul2Nx9oLE0TG3yLyxFiR999O932xS59jELzkCiIb7SIyeBuReZXcVoO3lew+dYfIa1PD743pipR3kt/sj0TmVrrFDF5w0UDCF1tWZMkBgbz3X13LX6By6R+8JzJhjMi4qwJJr5yru2K7HsFLrSSy1f4iqw3t3XEg691Ziqi+pWnMtFv+HNbX0pT6d1CE/msoyV8vkP4Ba4n0KWNFmdVP3yNy+0W6bj9bv8xO5uhaBLOefvYgkUHDenfw9ClKMkeLPH6rIvitMLM3/YII5NvgPSWlo/8i8uhNFtNaCOM2eLjI2tsq47Z8aRkMMGb0ree3NphKS0vnrvsQ3Edkg88rcg8MZNSazayZdF8gj889YrFJCLllQKyznQ4ILcPgSSXXN54dBoLFNRsyo1fbLNQL0l4ODKY7LhZ5YJQISO8m6CoEL7qMyM7fEVl+zdIumny/yG0XiEyfXBpf6W55Jamf+2ZYU0lH5LngGOWE30xyIy6tuK7I4ssFJo11mkEDNfDAurzXj0RYoxsBmLFRvxZ54+VGcmeTp2sQDGe84zdKyeyMF0T+e07o/Ga6Y+55RYYdLLL+TiKXniQy9fHwNMzT0H0CSS9n1D76XyD5DKS3ZoT8cykzdsTfStf4Dz8QeelJkecfC0wc5TEQDGDobvi9cty3W0xnw84jWMnp1oeIDNk96Qg6++5/6e8ykf99mMQ3e9W3n85gnZ0ASo+9fhiUICGm8v/bM0Wu+Jki8amQvt3hImtupZz5nSIT7xZ59mGtkyLZAI4cJA/du1Rku/eKQHU6TbI7imBI5YhjRVbX9c3g9Wki1/5S5EWdJbGA94w8XWSZlZMSX3lGKcOjYQAtt1qQqS0VUetCXSoYHDBuH7wrwqCrBcutHpYXyL4BPMPVZwStmcVlHXYMwTArXzhZ11tdMw2evlfkut+IvDfLYuKEm+0rsuWXQlmQWJguFBceBgwW2fUEkYUXD7FP3SVy1Wk+R/1r2sSAXXWTJC/r8hWnxm9T8obaV3PVTk4ntQe5Py5F7rirRa78efyOQIZFQWJw8x97I5c0VJNXKmk2kgpVgelrBlh/aQPk2WDAIJF9TlGJYCGLyTbMHMGQSzhTzymPVkYGmVVmx288Ig4iFAD5f+TGcF3pn3X3aSWrBui5mwZtw61/1/b8NXlyWV0CWP9pe9aQOYJHqMjCqDa4+U8q2/7H7uKHfhYaN13rLcxkg8WanMH2HCHqTJYC231Nm3c5XhP6+FzpX2eKYESX1TdPGjXmPFUOXJvcp3GVcX+WNOHhG0TGKHUyYG0edpDdZRNmhmAQu8meSaPuv0bkviuT+7SuXndKB8/QVXufzxNDYcFMvufy5G30AWJXVpAJgpFHUWIYTB6nxgDW3AwAccs0VGikUGVWg2VXVZXkpknq5AeS63auUJ4gMhnscGTzDJw922yYPoKVRu6sosMCi4SqoRYcpaJQGgxVzxv0fdsfIYJoBMAVQy0MUFxgSy6H/qoe3ePExLAx8R5lyl4qz9XivTJeyPYzXwzPz68cNX2SxXo8T4tVbvgx1IXGVKEsuOZMnVFvNvx4UxkRiT5/dLBA8SAkdvzoILasoUvE0p8JnCz67iFKKtE/f6SaMpQU6KbNSIHeGnNjTECEuvZXqnBR2RqTJEsBRpUHR8V8S++yUp3BCy+hFp4Dkpfe95+4GqqkZL3SmbvLcQlyScPjA/hQDfWXq7IBnyuDZVcJ6lHMjNh+DblosZCHY6y/9i4LEcPuutTugsWsUTej5KnmrlJFMCY/s9FiOLjjH81Vrpnc2yvpxWBhAHeO0t8AtePFJyhjp4MMh7tygJQ/fpuqKJV0NiJOlT/f6P3d/9aB9nzIjcJny/0bfbK1fKmRaFxsBg9PKoXg75X0SUr7V6y3LAUGcK5e0WDxkEnEFgbaZ9ZXM6DqjSGXmBSfeajUuW7Q1srtbhk0U/Z8jJAl4aZzRfb9aSht7W2CzIxuPA1IDcG42ZirC50H55wGIH5tMTIpmTW3EnKTHMF4MPFuH1N6vdt3E3kdrrtdr5DS0sPaD1e9ypDQR9S/Wb13eZnV7lMh0dhH8YAwuO18u4ob4kKz07eS9RM31+t/1/47jIRSEsqZBfq2X2Z5CYhOpuVCNCt3ByrP3+p9KgjecOek05m9055utXrVn8MOi/WHdQx4TUWQa86qb9YLuWv/Y4dGbw2gxzZLVIiJ8w9JNtkYSjdkjzjllpcSHcFYTXBtNbhHmYo0AP+rfgNDyTBNkLhYZkbKu+mPSa3X3SGs10lMnCtvdcK5sJq7bjtvi45gGJNPZtXU4AHRTgUrPYv4s9GuSQpasdhMCjwD3hsA1CKNWYxhY/qUnlf0IDcNFWZ8BG8VKsx/bObESh5+WLIE4CTw8PWWEjdknTRA+4WiJDb4PoKjjg1REcxenxXXCVWEgSj3mohVeTwk8LhAx4xJLi1AMcF7ABQhm6SwTk64NahTeQfarXInfuLbgagIHrhR4ngGY2Xeie1UsNKz7AhkzT3/6PQdzmG4DNbUWRxb88TGthceD29AJl9FTYoxIaocjMrPgK0drQKGifV2DI3Fia2PNhxN1JQHAzk2NWIW2zwZqDjnQZlYi5EQPOlutY3+OfpqhcEhBgXMYzf71Pau4yJ43aQyiEetwFrKTW73tcT6ZGUspOIK5rwhu4nceWlwqbW0tEPUm7b0wFGPVU0YGqlYYMwc5eH8FxOikWj8jtnHA+C52Irsi3XFmxZDaaX/OLWjJcMkmBVMUkbOqAZy8Sobx30znDRqVGBRtZ1bP4aY9v6jIdhkUqrzspK1Zkc4jmnbfCVpDMYJzGvnHCpy9oFqDfqp7iZQscIA3fPg4XaXfvjYLck71t4uuY5xhaHDHO0pj1MKYkE0BHsRohWZFF8lmAwAX2Icz9k9CEOFfRa59JITS9enrRTx9kx4Mr1/j+CVlZmMrb585dmk7kuvmFy3exUNwX5/zgxVcJSAihiIUAwC1jI4RYzsBtiNMbgDbFVhAxe7CXqBil7sVeKIBaCvLgu2NoaY9P7x7jAzIsxWSy61NarnbdVY4mJBNCYLJBng+8Ts6qcIXby/qvmWUQ5U104P48foLgZFJMDWETO4s6nL1ruQWvqPGvHJsSIbK7MFMFBaZehCCY3/48ZjTnl4SE4Y3fiz9XL6NsPPxIJoCPby4YYj6lePWWCwoM5uA99QiysP8esyMKd2u08zRJwxt9eBG4blod6epUbr43UGvi8bfb5aPtfN1bI0Fm97eirlRquFH1bPevqGcoxKfj1T4X20Ghm9vgPMY5L3cmIOVqVmGbxKda4Ux1FLWJmgUDjOQT2MbFfK30wcuxoNYg7aaAieb2GrniokHlAETgxnTnEYCt6Eldxk7Ilpk+wqrKmQewZDJYCp8q45XhxjSwwWGZgznM5bYfYqvdPHofSwDeGQ61gI5oAXg5hbXKIxWZ7kItKMvSjsqaWTayGXRqGlso6icezQZ/N1JRh2SNLBb7+uFp+HQi46GxkSXS7apoN/K7L3KfGZITh8A/MWtft2Qt9HXYlg25XXaiO9hwNiyMhfiLDOMXAwiEMO9/iBMle7Jm+485+B6yYG5z4z0lsO1H5s+tr/rFCWxbcTTnUI9hvo2ikzzWerzJPmX8kINDswHDOuqs0A3DPOcGZ3BaHsH+5xa9E13Py7rEw8IB+8zu6CnPznw1Wnq2LYBjsFnyqTkeHSKQvyyma3dkg3Chi0TrR1ocWVYiiDGOMkPE8B2znVIOmRcBWNRHsS06pnAj7DIMCXhfjkkQulwGsSWbkSPK9IxHUHZJPPr23IzAeqdmzbr7bnPQGzZbBUJJl1Xh0wBr7OFtdqGA3BHOxpgFKjVcCf+a9Hht0IOL/haosogvgE43TBscFrst6SgKUJ78q/HBF2MNqsYFazRh/yu+A620o9vVNeLKUExhQD35cW12oYjUQjx9nBnohM7ZwAB3LYRM2vB3QWt7qXCW4cqsAWEXTdrOsADBlMGGdbjdGBYAMgpNb+n/Fckh7LG9IrirzIlLyptatoM9gL6mivooKuwe0Ca+e/FaFXnynC9hQDlDIjzwhnZllcvdBUpeTziKn3XK10E73I4xU5tZ5pJC0agl/TDjTwemmLazRkhqGGhFlqdS2v9S7UnOcdFUQ4y8c+pQN+mcxui68Wehk9FoI9JbBdiNXe30x8NAR7ztRblpqpDHkHDRfBqW6/U8P5kM0+30h+1rirTlfDxbnK0OkaDyBm7XlSqbdmSOn9P8tpnWpp8Ho/WT1mGR1kBt7wYHGthtHW4OnPJFVAxJEW101EGgOvzrS4mOFDKma9+ITI7t8PazIM2DZfDoqUWttHoVYwgvhhx/LF9gj22rl22xttBsPl2jqMnnbplZqvGrKlkSo45+lTmi+j2Sc4wv/C44IN2p7l2CXOuzI52uItpG6oYNGkNcOc2fPlIUcmmzcl/EEjBpfyMqrdR0MwL0BZYWDcqt03EuLJYGZDSD4iUhaAouIy1XihPDFAm+YZH4tnzcVvivaBmBjA5wgMkONjQjQSTaVwHrPjEeigZg9Z8Wt3FrPXdyQzERch1mfOhobjZpYarLqpHguxT1CZWhwhDBfyOdtQKjop+MxVrinbILZtOyqCsZfO/nrQPLG9pFk1npFnGhuT0bDOqxuqOIbMjBelkUmMHjseWZ3hY0Zvvp8O7GG6l/hUPerfSRN136cZYO7sJALUsrYhrZFnG8kTlUSzJk1VpgVg/Vpzi3Dd6D/KBwN//JHFZRUacnlfOXLhunH+4wxr4znIx2d89v5J83Ix+5FMD82JQG+9SmnxIOoMploccW9mtHV2KDUI1Ku2MRrk87JmvefSSod0Qq4NIMVo1zznzEkAuPDCIOIjhp6bE2YbBX+sE3bs2BB1BlM59tqYshwFAscTNQr+kO5mrVGNvqOZfKy5BiCXfVAeuaQxoDlf2nTjOCM0qujBkZ+zNAEoA2XFhugI5rtCaIsM/EHfFlc1dLWJ5etU9V11Elhbe+R5zUfnf6IXr/AcnK9tUiPZM00Vsn8StfHun1wK35bw7kdJSntXrkvbK8g/fe+VH9txNZIzNMwI4fNUuvZcaLkXZqX8acZ5ho8j/Mtnbvm7cVMyWGKAXVUPKX8tXX8NxmmfpQGpIBhLknGDyLVmxK/XAI9gvjXYSfBuM7bk1KqPzzPPvLVyhjQOXjE7N4Pj5cn1n2klRyoIpiK40/R4Y+g1s9hEgVqV9Aj2DFetZ9JK8xajfgPrv8Xn8dx1pSfhS0xfQDof2EoLUkMw+lQYLgO4SxuxFlceejso7jCdBORwMyrgpssZGtWA7a7rbJ+k+t2CSWy4QnzcQXUFBqy90ybaXfwwNQRT1dsvTDhqRjjHBtaCmdOS1HYO405KaeNKlQ7+aIjtFSmVqBDIxVhhHhn4ZdfSRqEUsdkOWee0+zQhuhzsK4s77NiL1fx3aIjdfN+wNlf7wBX7fwz810ssLusQ9SMzFwcG5FxOp4NbZs1kOUF3zsw15CIqoQkzkam8vohFfpBzegB9lCakOoOp+P1XByd4ruGMdz2+uiHfu73GUuTz3lYBJCLj2prKEmMf8OLE2k33KkUup/1MUQ1XJcB5gZNwzULFxgB/UHilZ2LEpY5gRvMoVeLbBmfEA06nqwTocc38huqv05w0dcSDkq2sfBirGkCWLz+1+ucJGBichGviIqSZzwdVm+nV3tNKfKok2iqEVYZtnyOOCTHMAk5ZZfeDB8yDkG8UDHQKJM1/JMPnzfIatSkeIHhQosRgkCJGoTeGoWLNrYWsrXWJ4lxKgxv/kN33hzNBMA1DDYd4YDsPUQPSceUHYqNwNw0SOu1uQLAhhtnsfaItnpABiV4aLZ73695gROluDNo7YbR/Mt3r1Em0rz5uMP7UWUQnr2wnLy40BpW4VkvrppCDVw87W9fYb5eKS/hf00YD2n6z9kGWkCmCIWO4rcJgAGi5djwqOKKHmLC9xK7ZieA1ShbfqRCN3G7fE+GkHb/FEznZuH5078xmuOUe2V/bCECZaHstUh5yxv3PFMFUHc70XyercD8pNAQk0xGcCADAsVoayMV9tlsAEswn7/iCjMmy1I3jCM1QgJsP+6A47d6A9uAh4jV1lpZ2mDmCaRCKe5DsvSaH6ohHYYA4wbFFBv7LpBbXiRCvR/PRwq2HjWwGmDYfut7uSrfEsC0Wf696xork6bhXHUEwTWBX/yUnla7Jqw0VOejX6q04M2kk6xskr9MweHhSA87qKCe1WJzKAYPLZT/qHHKpT0e7jpGPIsF/1witkT8vCy0R+3w7CSgnvC7ae16wjOCoz2cAPODXxZdIPUft07O6zkxMqtYgZgLcNdwzaxsk2rQ99gxuM97eavFZhVjDzPgx86XkHGkGHu46fi8WCh3kXD8Isqpnpfd0HMFWKXyS4a7RcplPl6VBumFqpk+xmGxDxB2DR24IRynBUfvDV0nH4XCULjFep27PdSrs2BfAqzZYuWo2n23xxeTEAPJiW8YtFwOAnedRtYyICZz9MfK0pEAGod9eQwqzFq3c/dfqjdazm6D7EPxx7+ATxZlUg4YHedl3GjMZU94Td8Q5PsGXXX7NhjSvZvTpLC8ccYhZtBu8QH3d7LprEWwVxCSHDRUybdtaLA3HPMQVfJSfebC9szesTDh2RCJ2ZnBcYaWDVkDsk2p84MgJv6vSyuimsOsRbJ2F+XAjXQuZ0d691tIJkTUhoRgses7nUoaImYVDPhYcjBkMEqxUlMGBojjb85VwXF0xboDcauWjqGDGYgL121p8Hbrteo5BsHUcWz34sgtbRdBVl89qyxcrhEpwNtb40cGQYGbPWOWnXc4ch2DfIRz2wnciIKfs+GNnQQzgjBCQikYN8m9qyBhlZ13GHI3g8s7inEs4XMgttltOTodZwzAA2cWjBG4cBQskm9kIMvEkYT8S6ykkvlsZpvL2NnLfNXJwI5WtlwcD/ET9FZD0gPKMBeS5BwoE5xm72rYCwQWCc94DOW9eMYMLBOe8B3LevGIGFwjOeQ/kvHnFDC4QnPMeyHnzihlcIDjnPZDz5hUzuEBwznsg580rZnCB4Jz3QM6bV8zgnCO4aF7Oe+D/zxiVRRcW9ukAAAAASUVORK5CYII=;" parent="1" vertex="1">
          <mxGeometry x="540" y="206" width="120" height="122" as="geometry" />
        </mxCell>
        <mxCell id="g41ISQYCcfccL3WQsRhH-12" value="Certificate Manager" style="shape=image;verticalLabelPosition=bottom;labelBackgroundColor=default;verticalAlign=top;aspect=fixed;imageAspect=0;image=data:image/png,iVBORw0KGgoAAAANSUhEUgAAAHoAAAB6CAYAAABwWUfkAAAAAXNSR0IArs4c6QAAAIRlWElmTU0AKgAAAAgABQESAAMAAAABAAEAAAEaAAUAAAABAAAASgEbAAUAAAABAAAAUgEoAAMAAAABAAIAAIdpAAQAAAABAAAAWgAAAAAAAACQAAAAAQAAAJAAAAABAAOgAQADAAAAAQABAACgAgAEAAAAAQAAAHqgAwAEAAAAAQAAAHoAAAAAtCZ33AAAAAlwSFlzAAAWJQAAFiUBSVIk8AAACS5JREFUeAHtnQlsFFUYx7/tHm2B0t1SKF1ouUQJXpFgvEhQ0ZgoeESMaERQQQmoJB5BIioYzijRRBHlSOSIaDxQ8Y53VFTwQERFBJEKbWmlCy3Lbrfd9X1vO9OlZWdn6ezuvPe+l0znzbxrvv9vvzcz773dAlBQQgEHWrl75NiYEtYqauSQre848hS1XTmzCbQiyAk0gVZEAUXMJI8m0IoooIiZ5NEEWhEFFDGTPJpAK6KAImaSRxNoRRRQxEzyaAKtiAKKmEkeTaAVUUARM8mjCbQiCihiJnk0gVZEAUXMdFlpp2/6reC95VpwuN1WVqtcXbFIBALrNkLD8nWW2W5p102QreGCjuKdeJ01lbXVYilo8mTr2FitpaVdd6KZe84dl3hIcZMKDN6yyWTO9LJZ6tHpNU25s6kAgc6m2jlsi0DnUPxsNk2gs6l2Dtsi0DkUP5tNE+hsqp3DtjL2elV86/U5NIua7qhAxkD3umdyx7boOIcKUNedQ/Gz2XTGPDqw5rVs2iFNW95J4zNiS8ZAH3p2TUYuWPZKMwWaum7ZPzlt9hFoAq2IAoqYqZRHuwf0g8r3XoTKTavBXelXBHHcTKVAl9w9CVy9e4Grbx/AZU8qBWVAe4YOhG6jz9fZdr/0QnAPrtSPZY8oA9o39WZwOPgPJXKmGPfdfqPsfHX7lADNvfniuDfHYu2/htn98lHK3KuVAO2bcpPuzUc//QaCX2+Ne3VeHngV8WrpQXtOYffmSy7gYNGbA6tehga2aaHHFaPB1a9MO5R2Lz1o39R2bw5+thma/9oL4V93QvC7nzlUh8sJ3sk3SAtYM0xq0B29uWHVBs1uCKxu9+qisWPAVdZbT5MxIjVo75QJ+r05+Pm30Lxrr84w9NMOOPbjr/zY4XJB8SS5F0pkbPZKVzTDEUdBPn9ydlf44/vKfsDjA/zg9Bbz1vHe3LDypU5Xgl5dOGI+P198w1XQY8xFEKk6AJF9bEvcV1VD7FioU3mRTggHGgc6Cs8f0QbVz0e6Ugne0Zu1/Me+3wah7X9AwZnD+ClniRdwKzh7uJZF37fUH9I/AHiv157c9Qw2jwgFOn/4UChbMtu0pNFQGMK/7YL/lq5MWqZuwTPQe8694Bk6CPLyPUnzuUpLALfCEWdA0bjLoOqaKdBSU5c0v90ShAKNXyfFbjhxhAvPRfbXMm/bH+9u/2nrdlnX21pbn1LvyO59cOC2B3g+fCBzscmO+G2gvG3Pjvv1Pe6rwLFIC+AmUhAKND5M1S98FkpnzwAHG+zAEGH3z+rpD0Prf4Eu695SWwe4hbZs0+vCd2z/8wv5RAiejDVH4OBDi1l7DXoeESLCPXU3vvkR1M17GmKtrVxfD5uY8K9YAs4+vSzX21VRDv4XFuuQo+FmqHlgPgS/2mJ5W5muUDjQKEjTe5/BwTlPQqwlDhvnlv0rGJDyPpbp5R7QP15nWSmvMxoKQe19j8OxzT9a1kY2KxISNAp09OOvoHbWInavjHC98D7qX7kE0Au7GnD6svwF1l2zhy8MUfZqVTNzHuBTuqhBWNAoePDL76Dm/vmAXSoGF/M+7Mbdgyr48cn8wZkuP0Lu5ePFo0eDUHPPYxBqG1w5mTrtUEZo0CggdqU1M+dyr8NjV6mPgVrEXpcG4mFawXPaEChfvlAfaIk2HYVqhLztt7TqsWNm4UGjqKEftkP13Y9CtCnINXb6iqFssfn3bQ1MnwUPgrO4iB+2HmmC6hmPQJgNqMgQpACNIMK//A4HH12qM8nr2V2Pm404e/bQsx6c8wQfbNFPCB6RBjRyyCtqhxvesSttNDiKpoW8onbo2jmR91KBzj/9VJ0FjmGnG8I7/tSLFCTUpZ8UOCIVaG1yAnmEt+/shKX7ZaOg4q1VfMN4x5Do0Ykfmo75RDwWagjUSGAHm5DQnrRxPDzRO139y6F01jToxma9tFC2aBYEr74c6pcsh5b9Nfx0KMGjPcOGADiZH7RGtSJC76XxaHw1wgUEGCJ7/wV8/wW3C3ApUcUry46DrBHrdsEI6M/SvHewZb+sbDRwhE2QxKHjTBauUJElSAO64MzTdCb4SlR43jkcsO9Otp7bE/8RWhwfP/zy23D4lU36WDkCLZl2C/Tf8AwUjDzruCft/OHt93y9ckEj0nTd+W2LB5BDIfPUItYtJ4YQWxBYv/g5aN65h59u3PQJmwWbDtpDl2cgG9tevgBa6ttnpfA+3bjxg8RqhI1LA1oDhiTw+1VawIGPQ8vWxoGxe7cWmnfu5vPQPcdfCSXTJ0Jej/irGY6saSGxTu2cqHspum4nrv7o23kVZ+O7n0LV+GnQ+Mb7bCK5HbIOi5078uq7PE/Th1/op7WIe3AFOAoLtEOh91KA7vgV2OY9bNXIXbOhbu5TEG04nBIQLlrAac/qGXP4ujCtAC5ucPvlWNwvRdeNr1Khn3ewb0cOgMNrX4fA+o3stSg+V61BM7PHaciqCTPAxxb095xwNZ/MaP67ykxR2+eRAnSMTVMemPqQNWKztWANKzfwzZoK7VGLFF23PaS091UQaHvzsezqCLRlUtq7IgJtbz6WXR2BtkxKe1dky6duM/8pJtl/4TFTNtNIkl1bpts1qp882kgdidIItEQwjUyxZdfdla6vK2WNhBI9jTxadIImr59AmxRK9GwEWnSCJq/flvdoXOeVKuDEw4mCmbInKmd0LllbRmXslmZP0GydV6qQTHxcI2Z1SNaW1e1ksj7qujOpro3qtqVHN6zo/FNRZjXrSlmzbYiYz56gk9x/zQgsQzdrxs5081DXna5iguYn0IKCS/eyCXS6igman0ALCi7dyybQ6SomaH4CLSi4dC87Y69Xdljpka4Y6eY/mSlRHKLNxOhdqmu31KO1H3dL1Silp1bAai0tBR1Y/6b+S36pTaEcyRRAyIF17GtFFgb+H792jxx7gq8aWtgKVZVTBYZsfcdhqUfn1Bpq3FABAm0ojzyJBFoeloaWEGhDeeRJJNDysDS0hEAbyiNPIoGWh6WhJQTaUB55Egm0PCwNLSHQhvLIk0ig5WFpaAmBNpRHnkQCLQ9LQ0sItKE88iQSaHlYGlpCoA3lkSeRQMvD0tASAm0ojzyJBFoeloaWEGhDeSiRFBBMgf8BMOhQsK0O0xYAAAAASUVORK5CYII=;" parent="1" vertex="1">
          <mxGeometry x="539" y="30" width="122" height="122" as="geometry" />
        </mxCell>
        <mxCell id="g41ISQYCcfccL3WQsRhH-14" value="Hosted Zone" style="shape=image;verticalLabelPosition=bottom;labelBackgroundColor=default;verticalAlign=top;aspect=fixed;imageAspect=0;image=data:image/png,iVBORw0KGgoAAAANSUhEUgAAAEgAAABICAYAAABV7bNHAAAAAXNSR0IArs4c6QAAAIRlWElmTU0AKgAAAAgABQESAAMAAAABAAEAAAEaAAUAAAABAAAASgEbAAUAAAABAAAAUgEoAAMAAAABAAIAAIdpAAQAAAABAAAAWgAAAAAAAACQAAAAAQAAAJAAAAABAAOgAQADAAAAAQABAACgAgAEAAAAAQAAAEigAwAEAAAAAQAAAEgAAAAAggmnegAAAAlwSFlzAAAWJQAAFiUBSVIk8AAADChJREFUeAHtnAtwVNUZx7+TbB4Qik+oSBUfVGfU+pxAtT5Qa2kwj5EWB9uCWFp1ihXRRFBQV0UjSaBWbesDgU6rDKVUTXjIQ4z1gQVtp1UZasUqRWlttQWTGEiyp79zd8/N3Zvdu5uAJLvDndmc1/d99/v+93zfOfeccyNy4DqAwAEE+iIC1ZfqQ/alXveM1kNqy/XicaJz96Xc8Ch98N7Iy+kJ85wS/aVQrmyuK9MlPeH381x9ls7LL5QlSsn4kWUy29/e03JtmZ494CBZAUihnsroNkDmCefky5MYc4TkyLI55fqSnt7c8p0wVB5SIuc55RyZgWHfsW09TevK9SyVIzPhP6dooNzVUzndBmhEuVS7xoj0wx8a9sYgemG1KLnaawCGLQL4cm9dunnzAHHVnyDzbsuDvjNqynSpLXcnhTf9q6Zcj8tR8ptEHBEtD7fskqpwo2pK1O6vm3a27jd0sPyc+km2TWtppWcWmjL5dpJpVfXqIdueKuVBHQswi5Bxvp9Wi+zUHVJ883L1N39bUDltgO4bo7+SG5IN3LzICOSGa5SWoSh0sucGOyQis0FoUbhBtXjqPVmt5pRJBUDXIOvLboOWeiC5XkKyDpnDPfVr20Sm31Kv/uTW+TL0tiPpyVPR6XoLsCEB5N8h6yyMHBYrb27eJSPTfYiGJy2AwqP1oQMKZBPUxxkmrrfbm2VEa57oAXkyn/px0eroXxT7lNxqhL8aEdmG0u0gejjl07SSUquwy6NlwdsfyLWPvq7aasboI1RI6uEpdtvJIPM1krXwb1ER2Um+CFccTv0F5M+H3g3E1LVzjzsr6+WemjI5g7aX+dme+VRVvXwL08Ez9YWc4Mv49MhyWQUITjA2xnOzr1Y+ozZbTvz7Curq+B1p69JKtewCwGk316sFXvofl+iCo0LEuhyZioLdipPotwmZP5perwygzkVM+h66/cqWoQnjunfaclCaEiCMn5eTI9McIZoHqeWyqgb1jF+oiSlDDpcfoMi1/E7yt/vKn/D4FjRHZA6u+B9fm1usvVSfQm+aBe1lKJrvNvgz6EVVI7r9tKoBV03QOwBpLnrd6LBC36Fl7PQG9bRflL8cCFBNhZ7I4/ulZUoX+boKfRJP8UI68cn0vMHcJBfenaTvdERkw/YOeenBVWq3lZsqNZPSvJBcjIwzkTcMuQNIP2Ng2J6j5c8dSp6jx3wYJMd4AiPws4D09Rhdk26Xs6tWqDeD+JICVFuhR6LICyhSYASgXLd8N+imvdVmYmlRoWzE6OMdHbS827RbisOr1SfJdEro32ZUQMhTFhyY3yD6T0zUdZMJ7ov1Bgh6cAUP2wwiZog6rqhAlgbNtLsABHEhlcY3hxgZOPfHGqHdGRoNX1+9ZjSotzBqAj8TtwSXu2jAQLk/mb5dACo6SB6HyRliQbpdOuTbBOW/JxOQifVmkGG6cJuru5IpTDKvccueTFwMYsSqZMSq9bTPZzj/oaecRVmt6ipkCwadEDOqrb1dRs1YoV7xGhnXg9o7GCK1w+TQ0IMmEY8u9DJkS76u3HmRteCYQWilypU3/PbF9SDTGJs1ryeAnWbKMP5bWuWUqjXqI1POhss8dF511mG800Gw8dfN9XJlWJij+664HmTanEgvMgamf5oy8WgQk/QHTT4bLjOhBZyFHnBeYIS+KhE4xt4uAJlKM+kCSob16AVIl/Mm/zVbzuSU2f40wBlmbKAT/HfPbrmCEdqsHCS8EgJkKAFpLfFoseUCpFttPlPTWO+JvjZhBOP8zJmr1Y4ge5ICZJg6eCNGSnS+oKXkvjJ9dJCwvt525CDe4pUcbvTEqO2sXz2WSudAgOhFf0XgGkeIEoK8jE0lsC+34wUsc0QvJr+/CHItSxcIkCHCT5dbYsCKrhu7FZmVode4+gNWp10BZqQECD9rtPwEt9NtPtPS2d/QR6H/YUZvgPqY9aC/pGNDSoCam+UdKwjBX7T5TEvzCjt1B6it6eqfEiD8tBVgnAkU3bIoLDolT7o33890X7D3I2w02XyqNKWx4TLdH8SjdFp2J5tQpbpRr7dr+cyjgwuWpy5hNiVA/bzLp0reTyglAyrb93TqzgM/0awwpqN2SoAgcDfccDV3ITwd4X2JxkwIca0PHZ2UDBxR2jmiBekZCFAs3oy3AlgDXmnzmZgSQ139mdR9Nx0bAgHqX8ZugpITjSDz3pLT6qw0piO3T9Kw3rPQKoY3TDRLy7acLE0KkPFRwLnLMiLwZyx5NNtyJqbOYpiWl4zuxKF8gtAdqexIClBxuVwNQNH9LTb4WthzSiUsE9o7pPOhg9Jks6UepHdCgMIleiAI32kZca97gzb4LF0mpGaVAnuejemaGwrJ3CC9EwLEfvtMes+gGON729qTr/oHCe+rbdh2E7rRmbjYUg86CNYFoHsv1ocRb65zmPkT6ZAZ3dkFtXx9OTXnCuhFj1od2eFwvcXW2bQLQPkDZAoI948RvM55miWWOKvSVgljjzO7xt5idnQuSGRfHEBmh5HeM8USsmZSY/PZlppNCGxdaO0CpKk2703jAGLTcBTBeXCM4B8bG2SZlzjb8pw4c3dUsXsM86Iu72hxAAGAPflgJobLloqKBrJsQyZmj3McT0v05BqHNHK1nOs3NQ4gTnOMsASsbzxv89mc8vrU6NqXE3+qzdTHAcSQN9wSqzZ5y+azOlXyprUPr+k8MxmrjAMIAmdJ0rS1hCRwO8QKzfg0Et0gdexQcqjfnjiAiOQFLsGnssfNZ3GGkazzpJuOHvT0mhsHEKvZ7stofj85xEuYrfnc3E47Gcm6LMXGA+RZMQzlucdCshUbx65IpNNOetM2v7FxABGDokMeVLjbKD9xNpY5yODaCUCu/dbWOIBwsdW2gSF/Estk9LrsvcxWOhZe7FjIFrtui+0ie0yOA4gA9DQg7XLaGfI5ZOSe8PDwZE2WBbMwPSCKgZL101ep7X7j4gAy31cwQXzAQ1RndiQ95azJmiUOwsgka1BHh1TbvDeNA8g04Ic1xKJtDhEnIQr6Sf2+/rrQq0Bv5KvL9Rn0myeZGNsQ8vT05eq5RLp0AYgVt08BaCI/51AREk7n68LG6m/qYxIJyLQ6TrNeFBIxYBzs6K7lg91ark1mh0WwSzuCJtMFH/Og/AlD4nU3N6jFXYgzoCJ8ss7vf7zcxqh1C+oSfhxv2cmSzkXY9MdkJiQFyDAYkADoYYAC9OiFCzayWHlr1XK1wdb15TTMWYKicrkcO2Zj7PFWV+z4iCObpZUNapOtS5QGAmQYakv1KPz1CUCK20PCBV/mJgv4LTVumUh4b9aZwSW/QCbwSdX3vcA4Oml5lQAyvnKlej+VjikBMgKco8GFMgcwzM3i4hZAtUCylrbVrB692LxCNvfGAQfzCUVhkZzJQfhRuFEJ85tzEuhqHuTdG+tlXrprXWkBZEAyF99cnUpyG911rP/mDgF/AKyZ9k20v8LQuX7rDvm9+ZLQtu+r1GxN9c+T0dznfGSew+9Ubyjw3aeJdZ9HUKJ2Zr36l68tsNgtgKwkMwOlG03maZl9+xNsfZL0f4C2nAC/aPpyWc9LDJ2tZ5c5pXrEIBmbq2QCQi5E+fykkszMmIfE74mWNnkivEpFJ8BJGRI39Aggryjn4zktl5gnyRMspi1oYvke7Q/wtd/87sSt2AO5IRZPDvLe3+YBIsIkbgs6bGSy+3xbq6xNdcTX8galew2QX/jsUj2Ux3ouves8XO1S2o/x02CM+fpwXtMeuT/oyTKKHgsot9MVzDen7khq5VH/GvVrcJ8XIy2yYcY6tdO27at0nwPkVyz25eIVgHUlbdHJWYwIoD7md0fLTnnEeyTXzNyZnN6O8WYLKs8rE/qt9JTH+fBmyS0r1Lvets8j/7kDZJU2R/mKhGFXSSVgDbf1Tsp3p4w611Q9o/5gvlCmbh50g7w0ANPIpG5uS4Os3J+j5H4DyBprjtUUl8kEXPAO6o6x9QAQQRmzHnOWrTMpbvQy0WUWE9NGb/3+yu93gKxh5tv4o/Ocz7Rn0VvsVrdtNsCYf0hwE/vov3UreyHTawBZW81LcF4+Bwli/7iA+GK+zX+QpfRb+8KBrV4HKAqU83nkDbjZjZSvIhatswAeSD0IpHs018NyIHsAgT6OwP8BZTXGGy5iyCQAAAAASUVORK5CYII=;" parent="1" vertex="1">
          <mxGeometry x="255" y="60" width="72" height="72" as="geometry" />
        </mxCell>
        <mxCell id="g41ISQYCcfccL3WQsRhH-24" value="" style="edgeStyle=orthogonalEdgeStyle;rounded=0;orthogonalLoop=1;jettySize=auto;html=1;" parent="1" source="g41ISQYCcfccL3WQsRhH-19" target="g41ISQYCcfccL3WQsRhH-20" edge="1">
          <mxGeometry relative="1" as="geometry" />
        </mxCell>
        <mxCell id="g41ISQYCcfccL3WQsRhH-25" value="git push" style="edgeLabel;html=1;align=center;verticalAlign=middle;resizable=0;points=[];" parent="g41ISQYCcfccL3WQsRhH-24" vertex="1" connectable="0">
          <mxGeometry x="-0.1449" y="2" relative="1" as="geometry">
            <mxPoint as="offset" />
          </mxGeometry>
        </mxCell>
        <mxCell id="g41ISQYCcfccL3WQsRhH-19" value="Developer" style="shape=image;verticalLabelPosition=bottom;labelBackgroundColor=default;verticalAlign=top;aspect=fixed;imageAspect=0;image=data:image/png,iVBORw0KGgoAAAANSUhEUgAAAEgAAABKCAYAAAAYJRJMAAAAAXNSR0IArs4c6QAAAIRlWElmTU0AKgAAAAgABQESAAMAAAABAAEAAAEaAAUAAAABAAAASgEbAAUAAAABAAAAUgEoAAMAAAABAAIAAIdpAAQAAAABAAAAWgAAAAAAAACQAAAAAQAAAJAAAAABAAOgAQADAAAAAQABAACgAgAEAAAAAQAAAEigAwAEAAAAAQAAAEoAAAAA+Mn0GgAAAAlwSFlzAAAWJQAAFiUBSVIk8AAACwtJREFUeAHtW2twVFcdP+feJQlQQkBogJBks5tSypINI5Ia8hgLDqW11HFwpsXxQ+lYxrYj03bsWJ2RER0tftBWOpaOovY1otI6OtNSHYvabEJ4lBY2CaDsbjYPqiFtgEBNsrv3Hn/nbs7NJt3d3N09u5BM7oc9/z3n/F+/8z/Pey4hM88MAjMIzCBw/RCg10t1ifv25QUs7y6qkEbGyCpKaRlhrNCwh9JBxlg3peQM00nTMA29dcF7rPd62JpzgBzV9fdQRh+Hs3cAFEv6ARZD/X8wyp4JnG5+I5dAWTJQhkGO1XWfoar6PBSuy0QekDrBNO2RQHvLu5nIscqbC4AUh7v+u5TQXQgYRRgGRzVK2GFdJ3+hOjlOVO28X7tymZc71flFRFNvYQqpURSymRG6EYaqJi9jOiPs+wFv8w+Qp4v8bKRZBchutxeohWW/R0e6VxgPx4YIIz8PjejP9Pyr5QORnywtvbVuWV6+8jih5FEAPVvURc/7szbYc38wGBwWebLT7AHkcuU51YWHEDUbhdFw6O8RQr/W5W3qFHmppOXuxgobYfshc4Pgg8zDfm3gbtLRERJ5MlMzbGUK5bKcS1e+AkfMyEHWj/1ezwNX+roupasLvJcv9XW/unBJeQFk1HM50OFYSOc4B/q6/piu3GR8WQHI4W54WKH0KVMxY9/xeT3fw38+G2X6MIDx9sLishDQiUYnJVVFxWUXAZ70gVt6F3OubizFUHwW48VcAwnG9gGcRzJFJR5/pbvheYD0cFQP+XiIjKyUvV4yZ5V4BqSTB3D2CHAwPnh9//sPX/Nk5eGysUJqM4SjQWbTvD2yFUkFyOmqrWSU3GcaqaN1fb4R879sgsvWWDSCIBvLgfu5DTLVSAWIqLYdYr2Cln3L3950RKax8WT5OzwtXBcvM3TDhnj10s2TChBmlK+MGaLvHaOzTDHtOaEB66RtgpaRShuky1wNq/JstMMwipGPfN6mYtCaDCMtyFAr3Y19CKFP8bphLbSqq/3oWQt8k1aRFkGqSmvHtLF/gs4VOFythvXDO5zgj6LkrY9Smf9KA0ghbKUwhzF6StA5Sxl5X+iKtUXkpZtKAwh9f5kwAq2Z1lZC8KeT6owFBR/2fksFnWkqDSCAcpMwRqHaVUHnKlUVfVDoQgTPE3SmqTSACMXZ3+ijU2ITdK7ScTpjbMlUvzyACDHOcrhBVFeM2SRT41Lhn6DTtCUVGfHqSgMI24qgqYCSFSadKyJGp8wxUBpAWFAdM7GgJGbKN3OzS8TopIwdl6VMGkDa4LWjiCI0nrHkrylZWZOzbsZ1YRa9nevmNrBrQ62clvFIAygYPIV+T5ujRtFZBfn5MdsOGaYmljGqy5gYEMmeQODklcS1UyuRBlBUrb5fqKeM8GOOXMxm0EGfEHpx5v0rQctIpQI0MqAdRJD3G4ZRWuGoaviGDCOTyaisrt+JqLFH67D+qA3JOFIrk3rkOjjYGylaUn4V48E93AykdUVLSl/HUehHqZllrXaFu+5WhagHoCiPc2Ah9s2u8y1HrXFbqwXwpT+q093wHo4+3FwyQr5Du3K1PjpGydNlt68pUufPa0YjuAw9OL3ES4FPg5a6SZbaxUbd1zQWuQ/IXOP/uQNqYeEh7tBoecaJAQ5kCnC4LkOnZHC4odkAiATbWs8Rpj/IZ1yuBJvHWtv8eS32qlpzx8/z03m4DC6Ly+T8UKFrhG03dKYjcBIeqWNQrK6Bi91nFhbbgwihLejHaAi6GOPF9gXFZeFLi+a9S/r7U+sK/EXk0pVPqFT9LRAv4bqAPmSwB/EK+kCsbpl0NsagcfZVuBu+rBL6GwBl7vbR6j0AbK+mDb0a7Djx33EME/7YXeuWqOrsrwKInRjXSs1i3q0QOZ1ez2tmXhaIrAPEbXbc1ngLncUOwMG1sT7w7oFx5DSj+nHCFB9mIeOtK8JtAXa8lZQpNRjkq8E3bigA30kWptsCZ5vOx8rLBp0TgEYNt+FF3wPoFvyWx1gkpOAVjzyd0N2d3qYXwZZaF01BT2zVcS0TWyCbRldZNCrzTAayz6uMFOB2mrQTw8lsyXYEUcfqhrupQndgDPoClEmZFIyuSelhouu/9LU1vw4nzcO6yRxOtTxbAFEMzlsV49IUqYprFGOd6G5edLdzTNcDmJlwL1EfxH8dV+3mUF1dTBR9OcamVbhotQbljnhyIMPHiP40rua9iHLpQEkHqMJVX62oyj6xThFOma3O2B8iofDbwXNHg6LMSsovfebTWZswcG+F7E3gmbgRPqUxbWent8VjRZ7VOjIBsmGLsRst/S0INbsSWvgyYmLv8EjkF73/br1g1bBk9cpva1iq5pGHEKF8MyzGNuMsCMuH50YGwk/19rYOJZNhtUwKQPzKC5aC/KqdeZLIr9oBnD2XPw49O+A7Zr5xsGqYlXrFbvfcm0jhY5Qo38YYF71uYzCy0yOatrWn/YjfipxkdTIGyFlVv5ZQ5Q2As0QowgbjkBYKPZpqNxL8qabLV9SWFMy2/RrRw7te9GFsQNe0zYGOIydEVjppRgA5quo/r1DlT2brMRZC5Dzp9zbvTceYDHkozp8eUyi/n0SN4w/0uasRRrYE2zzvpCs7bYCcrro7iE15Eyth49YpBuGL2DVu6ezwSDswT8cph2v9OsWmvoloWsz5eVeHk1/ynfb8NR15aQFkd61fY1NtzTGRE2Ba5E5/R6svHSNk80QP0pS/mSt27NsYidT6vUfaU9WVMkDRzWPBcaEckdM9TEJ1su8GpurIxPrGxKGSJjhoN8oYCwyFRmounDue0ulmqlsNRbUV8E2n2Et9qBN9040GDgcEt9t6aFjD0S+LzqBYaBbkFxxEkbkEMYCb5Celys6qhicBzkNcJqZwjUS0e3P1zcQkfsQtHujv6ced6vdxd3EbIgnjN6nAmfnQpb6u5rgMcTItA4SvdFZgYXYQM0SUh+m7/O0tL8eReUNlDfR1+xcUl6Jd6ee4YXjr2lh4c8lrly/2fmjFUMtdDJ8w/Sxm+jyGqfxpKwpuhDoB79CPMFZ6DVuwBFCp7VmrdlkCyFlVdxdaYPOo0Iimkx2gpW8MrRqder2TYXSv7eCLcF74cmfF6saxRWUSgZYAQq/aJWRgXfFCZ7sn2hoicwqkuO3/Hl4kvCRMVRWyW9DJ0kkBcrobN2C981kuBFuI4dCwPmW61kTHw0T5IfKMKOI+Yb3UMLHOxP+TAoQ91tdNJsr2W/3Gy+S5gQjjM6zYKKIqPw1I+iQFaNmKtYsQNl8UEsIRsk/QUzXVdDq2T4RvZVX1C5L5khSg2flzt4qZC2PPke4OTybnycnsyFkZHz8xVLQZCjGj5VG6NZnypABRyrASNZ/fmdSUJ9grYy6M++hvLHuUSgxQZWU+vtzZKDjCOsMOeXo8IV2L/TpxAyFrZyXyLCFAFflLq82jDELOd7c1BxIJmWr5/KQR3Sz6RhcnkQ5X/ppEPiQECJ9j1wgmvFW4rmc8wg6ZKXwy92NUUY37jfHkJwQIWzvzdQ0GaPM7iHhCpmQeZa2m3ZQYd4zM/zFEQoCwNK8w6zES/czJzJj6hK6zczFerIihx5EJAULUlIuauk4/EPR0SfEOrVP4grHW/BBH5Ik0IUCIIHMBpShadEATXNMgDYfC/WNusJvH6PHUxLeTZikOxOYCJOOh1NZXWd1olk03AgdqcxL5lDiC2OjBWCLOaZSPQBCx8AmvEgKkE/ZT7MNCn+CYbhnRd3k/mW5uzfgzg8AMAtMDgf8Dq76aES0VPiEAAAAASUVORK5CYII=;" parent="1" vertex="1">
          <mxGeometry x="30" y="463" width="72" height="74" as="geometry" />
        </mxCell>
        <mxCell id="g41ISQYCcfccL3WQsRhH-23" value="eb deploy" style="edgeStyle=orthogonalEdgeStyle;rounded=0;orthogonalLoop=1;jettySize=auto;html=1;" parent="1" source="g41ISQYCcfccL3WQsRhH-20" edge="1">
          <mxGeometry relative="1" as="geometry">
            <mxPoint x="539" y="500" as="targetPoint" />
          </mxGeometry>
        </mxCell>
        <mxCell id="g41ISQYCcfccL3WQsRhH-20" value="Github repository with CI/CD action" style="shape=image;verticalLabelPosition=bottom;labelBackgroundColor=default;verticalAlign=top;aspect=fixed;imageAspect=0;image=data:image/png,iVBORw0KGgoAAAANSUhEUgAAAEoAAABICAYAAABRGGN6AAAAAXNSR0IArs4c6QAAAIRlWElmTU0AKgAAAAgABQESAAMAAAABAAEAAAEaAAUAAAABAAAASgEbAAUAAAABAAAAUgEoAAMAAAABAAIAAIdpAAQAAAABAAAAWgAAAAAAAACQAAAAAQAAAJAAAAABAAOgAQADAAAAAQABAACgAgAEAAAAAQAAAEqgAwAEAAAAAQAAAEgAAAAAVjU3vQAAAAlwSFlzAAAWJQAAFiUBSVIk8AAAB9VJREFUeAHtXHtsFEUYn9m9XikUCkggItLeXSIg9KrQQOkjYAyJIIkmmkiCGjWEEP1TBHwgmBAJBf1L/zCgJgYf/5Bg5I0kmj4AAyhXkNak7VHQIFGBgn3e7fj79m73rsfu3m6L6d5lJ9nON/N9Mzvf7775ZnYeZcwLHgIeAqOAAB/JOwNzqku5X3qVCb4cFQUEY4hEJ/4cjQ/EPoq2noqOpH43lR02UIFwzXqJSdsATaGhQkIMAMDN7S0N9Yb8HMuUh9PeQLiuXuJ8K0DymZbnXAZ/2eRpM8ff+LPrmKlcjjAkp+0sK69+SuLsDb2cEKfiQiy/1adMoIdohjydz/nrVEZP5yjhuOsFw7WXOOezSV8h2L6OSMMqkLEM/X3BcN03nLNnEnKitSPS+DAVyZDLmaQjiyoNV83XQWLsptJ9ew00zQSJlI8RD6jcpASVCZXXzic6V4O5jzHQyCd8lTSuJYJyIBr9RQVCy0mPiResqDnAmPS8mi/xM6GKunSRIbRgogf2dk4Ryq5oS/O3Q5guSDiyKMHFfXqbhXRFp80IOzLJspzxsbC8WlmS99OIalblaOU7AooL/rfeUK48qNNmhB0Zg7IYUd9/ILxohgFr1LIcdb0Yj53xsYJkY6WVZWWPTDTrfsRDt1upa6aIyvaWxrN6OoMIhaunCi5/h569EF6twC/8yyGyO0Ns1JKOLOpy5NQ5IUQrtRYKTZQmjN8D0ghsH/FIhmSpDEA6R7RZaI80XxcKO6rxucTu12g3xEZKWrYLznaTzOX9JETDfyhc2xBn7L07/aKJ8ooLeQ1msVuAZBWlKVAZRFmnBpwLVJUcLYRw9COqL/of/zhuDI1IimA79TZxXiVzfrhkjNRND9FAUAcJ5vSBG0cxvf02CcdAUb2dkYYNTCh4WL/pe+hbT2Eb2yONrhvBTNtswRgWUFRfe6RppzIYn4X5Tz1m6C0A7Q7if+GPLpAVYfVgVr58EJO+jn0UFdJC56Xmy6A3Jh8tOy/jYVtUXqJhoZQHlAU46SwPqHQ0LGgPKAtw0lkeUOloWNAeUBbgpLM8oNLRsKA9oCzASWd5QKWjYUGPaGZuUe+osWbMXTzZ75OW4nMqiBVTBYsWUXa770RHx9lbI2lU3gBFABX65O345nwJSzV+LAElA4jxRYPYFfq0r69n8x+/nf1L4ziJ86LrlZUvnl0o+84DoLVY4vHfDQAvAHDrxhQVnZk5t462zRyHnAeKLEnmvmNY79PX2LFC+JNQxIfqI8RpDRVsYJT6fOLQ9IcWTNHy7MY53/XU7sZYcqNDdAOk1R3nG7FNlgrBedVPMln+Ep2whMCCZW0Dd11KIjuV0xaV2MBgL2tqGoFEvI4LzQdZPL5akwNgryTLallZY9daFJRZiu37LVYaQCYEv6RuC1F3y7Sk9LIEFuo7jZFwEZWRJox9HPx96TJWtGuBglNeAiCWWDV+CE8RjUPSBgnURzIACpMGLpVRbDfkdNezq+S9kHOvRQnxI7rTD5ZKchHiqbMNtZayCWaNJsOFEtVoO7FrgSKQcFRoq5US5JDlkuLnyOegWy0MVtSuNPNTwfKaFaltNDGodPecsKo7k5fTXS+5nf95Sim+V50KpDJUSgVJkr7SsvEjfGZ2FECTyYxda1GZDTVL98fib2JWDmthM2BVJZgvHVBHt4Tjpu3p2sRIl6gB22ldfX2975jVZ5af80BdvXjyH3zCLJOZ77g2O08Co45uAE8P2IO8HIvzFcP53svprqchEG052dofj1Vg43U3ngEtPxWLQYD0SV9vb2XXxYZfU/n2qZy3KE1VsizQa/Htt8kv88cE4wE4b5x9U6LkuJ36JK1eLc4boDSFkoDZnnFr5bLFedH1sil5L/geUDZR9IDygLKJgE0xz6I8oGwiYFPMsygPKJsI2BTzLMomUHk1My+bXVUm+wtew3fdE1ijCuCDGBvGrBPPETYY/zh55tQmNEPF8saiQuV1G2S/rw0rCOuxejAPG57jQBcjLqeLmFKB3BYK16QuZA7FIWsqL4AKhet2MontwEewwS5xEgO6+8ylelU2Kyx3C+Q8UOo1XFiRrprh1V12UudDdjhXd13lo7AqgtMniaU2wZmsK2dOcNzL2a6x4ZBwdbdxFdIxLQ8nMo6A/h6rnl+jSz5L+RKXdiBydHnSVRalKNI1UoQCF+yJwLxF0xIp47+4uvsocJ1DXDhsy6u77E7vGiwD3yBZADaLrv0SbTe4yqIG+MDhMaJggHwNlKnksv+a1fXaDCUPWi3O0fko3ASjMwkvUDn12i9jllfj0ut3lUX9Hjl9VWHi7fQG2qYVcSW7bEpG4XxKdvmUhKuAomZ1Rpp2xZX40+gmjZgP9aSamoWSePJEi5VcSkYSwtGBsvRNCqs3uJJHfsbHC9Trt6qPunU7YNb9gsEFJay4qBNdehIpExODC+hGq13FXGdRdhtOclD0Z1heK9H4xS2v7gKkPRpIKNPmBCSq31XOnBrkMOBQnZ2ru/xdILlYqxtlNmq03Tinu56mpDrbTp90agyjWLBd7ZEGx58ydiZ1Rq9zVR7+m9DxyVNLezGbWoKphbFO6rVe5S1c3d06nMYbVzqcmka5zI3rXU0lk6bvlWQ5htFyArzWOHSXATj5NjxfiMH4ix0Xmw+NcjO913sIeAg4Q+A/GsSGqB9MVNAAAAAASUVORK5CYII=;" parent="1" vertex="1">
          <mxGeometry x="240" y="464" width="74" height="72" as="geometry" />
        </mxCell>
        <mxCell id="g41ISQYCcfccL3WQsRhH-26" value="" style="endArrow=classic;html=1;rounded=0;entryX=0;entryY=1;entryDx=0;entryDy=0;" parent="1" target="g41ISQYCcfccL3WQsRhH-9" edge="1">
          <mxGeometry width="50" height="50" relative="1" as="geometry">
            <mxPoint x="270" y="463" as="sourcePoint" />
            <mxPoint x="280" y="390" as="targetPoint" />
          </mxGeometry>
        </mxCell>
        <mxCell id="g41ISQYCcfccL3WQsRhH-27" value="Invalidate Cloudfront Cache" style="edgeLabel;html=1;align=center;verticalAlign=middle;resizable=0;points=[];" parent="g41ISQYCcfccL3WQsRhH-26" vertex="1" connectable="0">
          <mxGeometry x="-0.0459" relative="1" as="geometry">
            <mxPoint as="offset" />
          </mxGeometry>
        </mxCell>
        <mxCell id="uskPxacNbwo8cSwwhQlY-3" value="" style="edgeStyle=orthogonalEdgeStyle;rounded=0;orthogonalLoop=1;jettySize=auto;html=1;" edge="1" parent="1" source="uskPxacNbwo8cSwwhQlY-1" target="uskPxacNbwo8cSwwhQlY-2">
          <mxGeometry relative="1" as="geometry" />
        </mxCell>
        <mxCell id="uskPxacNbwo8cSwwhQlY-1" value="Elastic Beanstalk" style="shape=image;verticalLabelPosition=bottom;labelBackgroundColor=default;verticalAlign=top;aspect=fixed;imageAspect=0;image=data:image/png,iVBORw0KGgoAAAANSUhEUgAAAHoAAAB6CAYAAABwWUfkAAAAAXNSR0IArs4c6QAAAIRlWElmTU0AKgAAAAgABQESAAMAAAABAAEAAAEaAAUAAAABAAAASgEbAAUAAAABAAAAUgEoAAMAAAABAAIAAIdpAAQAAAABAAAAWgAAAAAAAACQAAAAAQAAAJAAAAABAAOgAQADAAAAAQABAACgAgAEAAAAAQAAAHqgAwAEAAAAAQAAAHoAAAAAtCZ33AAAAAlwSFlzAAAWJQAAFiUBSVIk8AAAEd5JREFUeAHtXQmYE0UWfrmTycxwySm3csmpggiCgogi4IEguire4KKIrK7w4aLriq4KigciHoAH4gEKq6IgIocotyIIiJyCHHIzk8xkcu97lalKZzIzSSbpSaa73/cNXV1dXV2v/tT16n8FgCaqqAEdaXnyHxBUhbYqVbLWS6DTq1R31amtAa0SyDWgNaBVUgMqUVNr0RrQKqkBlaiptWgNaJXUgErU1Fq0BrRKakAlamotWgNaJTWgEjW1Fq0BrZIaUImaWovWgFZJDahETa1Fa0CrpAZUoqbWojWgVVIDKlFTa9Ea0CqpAZWoqbVoDWiV1IBK1DRWfT11oD/rXDDUaQ366g1BZ6sOoDcAeIsg4DwOgZN7wH9kKwSLzlR9VZPQoEoCrbNWB3PHIWBqOxCM51wGegK3HAkGg+D/axt4t38Fnl8+Af+hTeWkVuajKuWSY6jXDqyXjwVzp6GgM1oqjIjvwAZwLXsevFvmYx7K90Yil5wqAbTOVgNs10wCy0V3oxNR9PyRumj/kV+xm94HAddpgICPdeH66o3AULMZ6Ou2QU2ZqhE/DgK8YP4o8B9YHxGvtBsCOuO7bmPzSyF72Eegr9Ygov59f24E908fgve3ryFw/PeIZyVvdPazwNTyCjB3GAym9oPwx4JjOIqxcRfIHb0aipZNAtfiJ9gPpOS7SrnP6BZtvnAY2G+eBTpD+Pfo2f41uL55Evx/bqgQBvrqjcF62Riw9BiF+ZpEHt7dK8D57hAIFp4UcUoJZHTXbe5yJ9hvmim66oArDwo+uRfH1U9TUv/6uueB/cY3wdS8h8jPf3QH5L/RF4J5B0WcEgIZ6zZr7jg01JKLx2Pf4S2Q/+L5KQOZwAsc3Q6O1y4F15KnBZaGuq0hd+R3oMuuI+KUEoie2aRZMz2uh+03Y0sunjz5Dv0Cjtd7Q+DUPhlKFsSx+XFwzhkGQZ+H5W+o0xJyhn8FYKj4rF6GgiadZWYBbbJBzp2fgc6SzRTzH98Fjul9cNw8lbSi5WXg+ekDcH5wCwQDAZbM2KgzZN3wanmvVLlnGQW0tfdYMNQ7j1Vi0OMqnhzJCzJHzLvlMyhcMJrfgrXbCDC16S/uq3ogPJ1Nsya6ag3BhsYQLoVfPIJr4y38tlKu7h+nganF5bgMu4F9L2vw65D3PP7wvIXi+7SmNzbtBrrc+iwumH8EfH+sgSCt3zNYMgborH7/AZ05i1UVjcvuNW+mpdoK5g4HY/OeoM+ujcaWJmDt+SCus59HU2svsF0xHowtrhArAV7AYMAPvl3LwPXt0+Db+z2PzqhrRnTduuy6YL7wVlExhZ8/gpbJ0HgpIispQPMBWqdzsfZ+FJd5syD3geVganVlFMiUjgwwplZ9IXfUSsgaMj0jJ3IZAbQFQea2a9+hzeDbvYzXc1qu7jVvgf/4bvZtvb0WWLreJcpBGyS+/evBvXE2uNe9g932WjGJo0TW7n+HnHu/xB20sDFGvJzGQEZ03eaON4oqcK9+Q4TTFkBbedEPU8E+6JWIIng244Tty0ejlnr6Gk0hC23x5k4hPah1Zw2eBoXzRkS8n86btLdomtwYGl/E6oBaiydFlq9SK9WUFTKGxHG8mnv9u7iH7RDZFC4cD873hkSBTAkCp/8A5/tDoXDxv0V6azcc65v1FPfpDqS9RRsadRHjHu0ZBwtOpLROdNXOBhuOs7SZYajRmOUd9HvBt2cluNfOwP3puRhXylalOx9oYmbtMx7c698B96rI1l1aIYuWPAUGNK1azr+JPbYNfA4cUy8pLWmlx6Uf6HpthdK+fT+KcCoCbFME7dk6sy0iO9rMoN0s+vPimOp878ZSf2BEUqC/RMSFXbu5/fVszmFq1h3I0hc4tiORLGRJm/au21CjkVAscCI0ARIRSQTMuHedfev7ESCTESbgPAE0RHAxndsLch5YAWDJ4VFJXQNn/sThhwgNITF3CrVufp+ua9qBllYwIw2koCaIQ2anZU6x+A7/irtSV8Hp8Tlw5onacObJBuBa+izOlv0shRF7Ffv1sbtmnl+sq3fbFyIJ7XlngqQfaEkt6PSpGUlsfR/HrtPMcvYd/BnyX+0Gvp1LcCgOARt0/AWurx+Dgjm3ia+bu9zBSIYiIokAMVe4kN1c+mPm8ZV9TRvQupz6YO07AcwSezJjcCZbA7h+pTGSS8Hc+wA8Bfw24urZ9DF4ti1kcURRMncYEvG8ojeB0wdEb6HPqQs1Jp6A7OGLwNINy5KiISLRslU60LqsmpA1aCpUf3wfZF09MZIihOvXZEVfqxnorLksG/+pP8B/cGO5WXo2zxPPDQ06iHBSgYCXcdh4HtS7mNv0Q6LDG1D9iQNg6zcRiN5UmVKpQJvaXgvVxm1H+zHSeCQszqCnENy4zHGvm5W07rQu5xJ0HOXBMq9B5zHxTPquiKxgwPnOYCha+RKQ3Z5vf1JWRE22XTkB6+E3MKWoB4mniKkZFOP4krXXI8jknCwIBfSKF5dT7lVTwbP1cwBfURy5xE4SREYoFz0yQNESjX/hWTZ/xq/6Ws15sNQllniYYCBwai8Ufv4we4uGKTOurWnr04CMVBJ99lm49z4P1/IzoWAedunF8wf2UIZ/KqVFW3FylHXtCwJkP45hjpnXozGhR2idmiKQqX6IiRIobsn6nDpgOm9gOdWmQwpx2I7t27+mnLQVfxR0HAH39y9D3qR24Jz9N/Cf2i8ys1x8D9hvm4PIy9vmZAfa1PY6HIufEop5cTsvf8qF4N2GrVgWCYJ7w/siZ/vQN0Ff6xxxLw3YBjwLbFaMkbTG9vwSHq+l6VIWxh05mgDmv9AR3JvChhiypFFDkFNkBVpnrQb2oW+J8lNX7Xh7QEq7SJG5JFC0fBK26tDYq0eCQO7DG9GU+RgY6ncAfY0myBwZADn3fQO2PuPEW65lz2G5wt2+eCBDIFiEjNbZN0PR6vCeu6XnaDC27CvD10JZ0gAm2/+SY7v6abD1/Rf7UiDvMORN7lBpvGki/ueMWCTIDCF1S//Xs/ULpC0NrnwCP26uZN/xKS7rBrGCEUcu77nW2L2kdi9eXrqvwQyW7iNFzRZ+ObbSQKaPEtMjf1ov3FfeJcpQMkCWMdeKKYybRm48lS4IKG2cBFwhT09D7RY4p7hGlmLI1nWbWl0FentNVmiafHk2fSSLAuVlSt4cxPlyzrkdvDu/E0kDhafRyW4ye+ZCbhrgujddQp4hRStfFp+39rhfhFMZkA/oln1EOT008UhxdyQyjxXAlur5aTbyuSaKlH50CHAtHIs+WztFXDoDnvVh+wFx0wD3zVMtss3pDQ0vFGX17VkhwskGDA06MaamLrcBY2f6j/6GjnaLqrSjO+14+f/azqjOZEUznn0+UpRSu2UrH9ASQwQpkawYm3RD0+krzAOyZF5BnxuK0PDiIoaHhJpbMl0m35PbEee00+4bpBho2bpuqTkx4DyaVB2bO98OOciwLGvLj8yptt7/hNwHV6ENuXZS30rXywGJYx9thKRaZGvRILFl03kiFRXjub1DXpXFrrNkF/ds/hS7uq3oupPDvCmMjULDhLHhBZB913xw4Gw7GZMirf9NrfuFzJVmOwTyDiEzdTn4D2+uqBqx3/O6wmmkdReOTSokH9BUcIs9VDisLPA4Ey+ozgB29Jbg/tG0t+ycdT3QmMaFHNjNXdGMSJQh4lejGyyZNd3rZvAk8V/R98t21ZO46TIadCZr1HtE8y3430Pg37826lnSEdIJmBT0pDMOZSBb1x3IPyyKaKjZVIQTCRBtllxZSWhJ5HirfwTIPC/Pupmh8bk4gqxMiQptG+aOWsXcgkoDmfIzNrkI03wPNJSkWog/ziVYvK7m96m4ygY0MTq5GJp05cGEruQZwYVI9cFyxvqilVPQXh3ykTI2aA+6nHr81dhX7Dmy0YuTDwH0gu/gJlySPYM87nFI1v+A2cIpnoiF5KDPlkEUkSLhu1qUnR+PzEq1yAa0b+8qUVZzuzDjQ0TGESC7NBffgXU8WPoVuzs6sIaL9F0eV9aVaESmcy5lj8laRqyU/CkXgGvRBCC7ecGHw9A02QrB/5mloaGEcdLwB5ISwW7b0KBj6Pt0VBaei5ZqkQ1oYkJytiW5n7IlQ6KllxhZ4uKTSbf6JO/G+iyNyVxcyM12rw1vxPB4mhewoQOHEBIaUqQ9Dk9XkaupzdViTsAOv5Nhc0U2oMl7wbtjMdOb+FhEH0pU/CfCXVisrpJ5fNRvzz5BP7DAyb1xfY4c/IxnF7cm7PqLlpe9XUhDBw0hXFIFtPXSMTxL2TxVZAOaSk5eibxVE2eKDqBJRLw7FonkNJPW124p7ksGbOR2W8z89CMLM97ThfTF3huUH+syYxhcfJIZdyLDQ8ny8nvyO+MH5tDxGm6cWMohsgJNB7VJC05707Q+jVfIbYbOEyMhb4uc+5YAufBECJ41Yuv/DPNj5vFFK8pulTyNuErI/OwMUfGgjIB0eCiHolTG2xHR+tqtIAuXhVzcP76OJyId4rcpvcq3ji4uJvGmTE27h+y4OGPNvnM+40jRRkM8UvDxPZD70FoGNDmm545ZB+S6QxMvYnuaWvQBfW54hu3ZsgANKvEzRYh6RL0OHY5DLFAaAso7vcCEZ49ykQ4tPC7eK9ns6VAcfVYN9oofh5pCOtROJpG1RbMyux3gmDEQ17+hXyq1THKVsd8yG4+HwI2JGELHWzhmXYebFvksJQFCXZ31kpFAftURIOPmhnPOrTFyjHxMXTw/IpKWTjQElCU0obR0vVs8lg4tIjJWAI0yxHbJHbNWUJ1JN2KNAtaVXCI/0FhyajX50y4D/7GdQg9L59ug+oS97IQA6U6XSCAJ+HZ+C3kvdGKcLil1lich9krBZ6PAiTQlqIBVqWjFizwrNgQQMwaQOCEVKiMNHeL4DVxqkVk0LkEmCb1v6/9f1Bn57AOeEXTnQMFJcLzZD82rv8SVVUUTyUolKlkoOn45C0ns3K1U+pyc3/yHfgYiKdAvmwB1r3076pxPsmDljFgsjBsF80aGlkMxllN03HPuAyvYJ727V+LZZb2kn2dDCqf00IMAHkLj3bmU+Ugb6rdj55rws8+CaLvPf6VbmeBQt0wtn8pqQGIiLcW4U4H0o959q5lbkDxnqIW/RFQi2cfo8OdwnwEPRydSnGfDe0C+w0aJZwTxnPVoCTNJXqCWXPJAV/Kflp475icPzBggS7IsM0hdfrZpPvOooEREKrR0HhaVnpzjyc22vBZoqNMqYnJYMhMa2+lgG8/G91NS9pL5l3ZfqUDzAtDYRn90wg914cTKJKDTKtjlO2cMAMsl9+PpQ48xoKXloR7G++sCKFw4jp3qL30WTzhw5iB4f/8WJ4pz8bqk0gDmZUsL0Pzjvl1L8dimpXiL/10CEuPYf5eAEzQ2DuJOlP/Y7zxpmVfyfvBLbOJlJZSul8tKQz2D+4fXwP3jdLBcPBx3xKazpGT3drzVD23tYfedMvPAB+SGU7DgIZy9n2FbnMSCCUo2ecp7V65naQU6rBRaspC/VREOFz8gJpxXCkLoHuM/EWaP0sw8XpDp6zTcuGOcIZ6CUiaURaXMuhMqURyJ/RlwVEQcxcyoJBnSohOrExonmcFE4jkZKwdyprN2R2c2lUqVBJrWyrT0SkRoeaVmoKtk150IwFraUA1oQKvkl1A1u+5kwaHT/UuYOEtmKf2PVUo+q4r3qgSaaEM1J7urIl4VLrPWdcdRdeQJUtVFlS2asV7idJMNIkfM/cO0qo4zqBJo357vo3avqjySMRTQuu4YFaSUxxrQSkEyhh4a0DEqSCmPNaCVgmQMPTSgY1SQUh5rQCsFyRh6aEDHqCClPNaAVgqSMfRQjcGE3HtOPczYzTGqRJmPtRatTFyjtNKAjqoSZUZoQCsT1yitNKCjqkSZERrQysQ1SisN6KgqUWaEBrQycY3SSgM6qkqUGaEBrUxco7TSgI6qEmVGaEArE9corTSgo6pEmREa0MrENUorDeioKlFmhAa0MnGN0koDOqpKlBmhAa1MXKO00oCOqhJlRmhAKxPXKK00oKOqRJkRGtDKxDVKKw3oqCpRZoQGtDJx1bRSaw38H+9yxbcWFNqlAAAAAElFTkSuQmCC;" vertex="1" parent="1">
          <mxGeometry x="540" y="439" width="122" height="122" as="geometry" />
        </mxCell>
        <mxCell id="uskPxacNbwo8cSwwhQlY-2" value="RDS" style="shape=image;verticalLabelPosition=bottom;labelBackgroundColor=default;verticalAlign=top;aspect=fixed;imageAspect=0;image=data:image/png,iVBORw0KGgoAAAANSUhEUgAAAHoAAAB4CAYAAAA9kebvAAAAAXNSR0IArs4c6QAAAIRlWElmTU0AKgAAAAgABQESAAMAAAABAAEAAAEaAAUAAAABAAAASgEbAAUAAAABAAAAUgEoAAMAAAABAAIAAIdpAAQAAAABAAAAWgAAAAAAAACQAAAAAQAAAJAAAAABAAOgAQADAAAAAQABAACgAgAEAAAAAQAAAHqgAwAEAAAAAQAAAHgAAAAAzuYkvAAAAAlwSFlzAAAWJQAAFiUBSVIk8AAAEP5JREFUeAHtXQmQJEUV/X1Od8/03Pfs7M7OzrILcskhAoYgIUeoCIKKKIhAECihBiIYaHCpgEEYBCqggQYgKl6AiiFqSCgeqIH3cu0ue+/Ozn3f09OH/2VPdtfUdk8fldXd1VM/oqa6q6syf/5Xmfn/z/9zHMT00uZtMZxtKk8JnLbrBIezPJtmt0ovARtovUTK9LsNdJkCq2+WDbReImX63Qa6TIHVN8sGWi+RMv1uA12mwOqbZQOtl0iZfreBLlNg9c2ygdZLpEy/20CXKbD6ZtlA6yVSpt9toMsUWH2zbKD1EinT7zbQZQqsvlk20HqJlOl3G+gyBVbfLLf+gpHv625qpdZrGsnpze/9OfzgIOEoB+r4VAvhyIeioSgNPDpMvQ+ok0V+iKTh3gjIaYpck5fRUVqvbVLadqVA59uTlbaoTApTLUulQ3cqGQ8/PUb7vtCb6qeyvpbLNLTx3nXU9P56U+WhtEen4hQNQENsSi2BQoCMmk0DGj1Zkg22lMTKsx5krcxW3mn8m2lAY7jWMm6DvRKsVCCbOcWZBjSaZYO9Elz5rdAgo15TgUYFNtiQQpKKATJqNx1oVGKDDSmQUEq12nUhLZKCAI1GrnWwi9WTIXtQwYBGZWsV7GKDXHCg1yLYpQByUYBeS2CXCshFA3otgF1KIBcV6HIGu9RAhqyVLmrks5YMBQ0kzQ55ltfFjxb6YxTkfGSYjXiKDjSYlKBKkEP9S9nwXpL3aHnPx062BNBGJC/BhqDybawr6CRft4/8myqoYp2XPA1ucvPhqXeT0+cgBy/oOyscgs3oYoxiHMkRXYjR0liYwqNhWuJjsTdE83sWaWHvAkWmozk3SfLubfMkXuCcCzHhAdFqq25W4233UO1ZQao+vYqqTgyQt9WrVEShgRDN/G+Opv4+QxN/mqZQnzVHGmxWo3ToVirldIW5iBreU0vNH26g4Jsr092l5DpenPoLcNSK8qb/O0tDPxyl0V9NEEWUVFGwQiwFdPDUSuq6ex35N1akFFB0MUrzuxZofu8iLR4KEaYBDMfhiTBF5+LDdCwc32nL4XaI4dwZcJK7lod3HuIx3FZ0esnfXUH+zT4e5lc6DvFi4Wi/oYX239ZL0/+cTclHKV60DNDoxd1f7SSHKz7HQpgAbeql+LA6/Y9Zmts5r66n8cgR2OKn4Fsq49PDaVWElwOEF23r97pp7y2H4r1bXC3tP5aYo72tHjr++S2JHrY0HqaBx4Zp+KkxCo8VZgx117uo6QP1HM7cRJ66eP/ACPLyuTspNFDac7dlNpSrfWd1AuTZV+folfN3Uv8jwwUDGX0VLxTqRN3gAYShHbxpyeFh7b4Ex8mVk5CW4wJ/9vG82HlLK9W8reqImmUPwg8wi6JLxdvREnWDB0nuWh7jNdR4cR2d+OIxtOGOdgoc7dP8UtyPRX/3at8RpJarGqnmjKCQRMWGCpp8cSatVIInV9Lxv9lCfY8M0cgvxik6m7utm7bwVX5wVjoJILZf38xmnCdxp8OR1Blwsf5dNcJub7mikXDAPBv47jCN/XaS39LEYwX/UDSg686rFikrUHi0VHt2kFzVLopMpZ97IeiuOzuo83NtNPnnaZr44xRBGYOmrZKggQtl7Oxqqnk78+VffQDEsO3rWmkRwL7v+doGWji4SH0P88v57HhRAC840IE3+RmkdnZwrLSBY9EYTbJTYujHoxSZSQ9yLBYj2Ysg+Prza8QBgKGkze+AebWgM68iFJmLUIy9YLHIsnnF2ruDvWWugIvNK5fOvGLv2lZfQunSvzxaHrS/xXhY33bODqo5s4oaL62nunNZt1jOQ/Otr6Du+zpFqs3Be/qEE0b7rNmfCwa0w+ugzptbqeWjjeRwJoe76EKUhn40ysPbiLB7MzW4/9vDAkQ4TCqPWTkaYC73sJcMnjIzaPb1eeEwQU/HEJ6S+D3C1IPDXeei5o80UMuVjYmXJnCUj7Y+0U3DPxujg/f2rzpypSw/z4sFAdrHdmfPQxsowE4IScgYHPzBKPV/h7VndmpkS7FQjIZ/OiYOH/u0MdRXnx6kqhP85K5R25zwZJhmts1z78P0ME0L7AMHZZslGR6PUN9DQzTw+Ai1sh7Sdl0TuSrjylvTJfVUzbb57hsP0CzXYTaplUwKbqvPqKLNDLKrKqmdTvxlmg7cddjwnArBD+B4dETUjJ4G8DFPVnR4yNvsEYsaTh7inT4nufhw+uOjSXQ+RhEeTTCiROej4mULDS3R4uElWti/SPO7FyjUq8Y+hsLY980h8XKu/3wbNVxYF+e3w0tHP7mJ9t7aS2Nwq5pIpgKN3oaeLOepCAsU8xN6pBkEZQzHJE2bUbzhMpdGwrTns4eEBr7xnnXC9QrZbLq/U7hjR55mRc0kWl2NNFBp5QmsbWpAXuwP0euX7TYNZAOsFvzR8een6NVLdtEc++VBUC43sg8fpqZZZArQrhqXGK5lT144sEjbL9sjNGKzGmK1cjEtbL98T8LLBgV10/3ryctTjhlkCtDrb20jb0ucYSzq77h6b8n7g80QbqYy4SvYee2+hK4CPabri+akGCsHGspQ4/viygYauu/WQ8qUGpRn1huPsrMlRK+oImjmuz9zIGHf17JjBsuxqkk50M0fakjYyRMvTAmzRCXTMEs23N7OWrxy1jOyCTfo+tvaV7zIGR/K4obZl+dp5OdJRaz58oYsnsrtFuVad905ydWcgSfiZk9uLGW+Gw6IhovqRP71KLsU57bHlZrMT+Z3h3+LT/i5sUzpZvesGQRZyeBIWCsEKzC5dmK4SqVAIzgPtiwIa7UICjCLIPA2XhvGsdgXoqm/zdD0v2YJ3ivY13BH5kPCX80Onspj/VR1UkAstqgcqtPxNL+T7Xa242H7Y66GHBcPqvPdKwXazdGWksRifHqXtbwt5zMWMBDZWXVcIPFsRbtX9AbZI+DPRiAfXoClYY7uZIUQ/nNEfCIqBf/WDWvJIjKUz3BVepvYwcLBhihLRpIkKtB8mH1tjmAP156VHLk0Pxv6uHg4JIBGIQhtKlmgZTwWGJVhtfiskmZfmRfhwFWnVFLTpXVUy1OFdr0adSHcCD1Cji5G60fM2fgfpmjkmXERJwYXqBlAO3k9QJJWlvKakXOyCxopZfnZpSEOwuMh08nLdR42r7AqFJ4woVtzfTM8TOPAXFZ5fICCpwTEipifFw1867lXamLLcmkaRgPEds/xUIq15Jl/cz3bOKLE5LVkTBn+Tcm1APCgkpQCjXlx9pU5Cp5UKbw99RfU8LKjOe7OhBB4Kp5lIHAQxZU/CA0RneLgIRkOHMzpWEHDb4gViPLiCPgNsy0bmYyI4TjE3jv4uvOd3xM85fEBChj88SA4mGB2qSSlQIOxsV9PCKDxue26Zl6OG+eMiPwUI5SRDwEozG8q57h8+Mj6GX7x2j+RXPaEDFWTcmN0mOcxKD8gzJHYCNam1SXQenUja/lx5RKraYNPjq7+QB6/KgcaS3K9DwwkWIH503BRPNMhcdH+kJAAgiE7b25LfMf6PHQd1aQcaDA4/JMxGmevmKTur3RSw3sVgW0Kx5LTLM+KeADIPQ93Jcw5KH1931K3dbO2NYpY1hYZ/7znpoPxzAn+CrsUWRYdn+b9q5MWxJEPZXEFJhUiVopFqBs8GCWEGG1+ZGMi4BA2/64b9rOdb7Tk1M+bBjSG8B1X7U2CzapuxydbRLyUkYUJJL4d+8vNIgYcJlyhyNPiFnUe++xmQ1mbcM70PLhBRLHCDAUB5B1X7hXOHbPao1zr1jKK7AasuaJhNWfGF9Wr31pFxz3HcdkPD4qAwHxMGXi1oNEjPUbkXv1+iib/OsM5zfGYLi0PRj77urxUzXzXcTYG+M7XNhc8cJdq+mA9dbJyiqQ+Scj6eOP6/aaCjLqSNcqaFZ8jM1Haec0+EVAHEwLCcnEGY+ctbdR8RYNIc0EOVbaAh6cj5A7GFxZQFgL/ZfA/wn3n2NeNjMqF/WxeLbtAwzoXKKYP2Kzw3uEswn3Z3q6AC5TjzZBJWclhyUigT0VaHlL9vuIa1wV/Arxp/p6kQwT3DD45IiJBs237inJz/JK6JTkWkvF2NqMPf2OQk8mnaOOX11FgazxMt6LNS113dVD7x5to8PujNPxM5qS5QQ4LRi9Gb8bardYvDVcoRg45emTkK4cb4DFDskD/48NUfWpVxkhQkdnBCmjLx5qOSPNFXNu+23vFQkwOLBi6tTBAL7OIsNZXL95FWG/FfA3HPQjzLnp4x42tNP78JO2/4/Cq8c7IysCBxQ3EWcHvHDw5QJ5GtXM2/AFYERPZIOzrxmIGCECnI8SUN15SJ5IKpKdL3ouFFZhP/fyPUQrtRCoo0KLB7DMeYocAFtpbWPMUaajLgEM5CfJixWqZGlJoOCMeHJGTMnoSSh4C5H3sM4a/G6k7HoT8svsTaT4YquECBWHRAMlyEZ4K4AIN8SqXcIFiD5PdHO77RjzbQ9yc5R9kUfZ8ff2KORiPws06xMN0/2Mjoq4si1N6W+GBXmYfOxDg7UaGRsOFvFUFg46lR7FtRJ4LCCH2U+OgF4oT7gvTCBGeCFAAIcoTWSgj7AZGe4tJRQNaNhqKCASBA5Ec6GFWJpHhyUEXI89OLC+0lEZrig60VgyIskhFSGorVdLzhn1NSnFvE9McJiqB0a5pQ9mR86zKOrItC3UjzUiSljd5rRTPlgB6gh0iSMoDQVk75qkeU0JiMwGEMFxRNyfjg8ATeLMCldTQnU5g2Ebq4N191PWldeIWpMsiOQ1eJcyJUIBwjxmE4AXkOWO3A7mUKOsBT2bVK+tQdRa2hlV2Dqx/d43IZEgVcosMyOn/8BZUr7FnjM0jRGmIAMVslV0e22CO+XhrDX9PBSFhH5Ey+h0MIHiYS/vv5AzI53i7CgsQdiWyFNCQKRYF2jgJvZn9xtpU3FTyxi4KCMkJs2sUrliEIMugO3jU4DNHIoCbPWooV5ugn6o82PdDnAnaz/unqA71SVWfqmuWBFo2HnnOdefV8LBaw77uqoygy+dyPQPcSY4Zh8du/HeTnEtduhZAurZZcy/Q5dZA4KNsq+LAv4AJHO0X2z0F2BYPHOUXYUyeZt7Vd3kPkXRCkNehWCGyA37ouTfmRRQoMkDmtvNuBNkO/7KwEjyXlDKGTc2h3MitkLOWFwOBuRmHnhABCp+6XK1yLG/jHMN+ZTg4Rgv7hcINqoqwUgUlTm5NrapcI+WUDND6netzBjuNFACgShDTVJO4DJBxSCoVsJUCrW1gLkDpQUZvsCppeZcpQrmAna8MM8mr6EDrQc7n3xNkamQhf5egSpDlWV7PxItZQBfVM1ZuIEsQAWqp/UvlogFdriCXKthFAbrcQS5FsAsO9FoBudTALijQaw3kUgK7YECvVZBLBeyCAL3WQS4FsE0H2gZZwhw/F8v0MhVoG+SVIMtvxQBbqWdMNgRnG2StNI78LD1l0nMmz0feqeaKaT1ay7jV3ZpqRH1kKal69pF3qbliGtCSPRtkKYnUZz3Yqe8yftW0oVuyhp6t7d3yeqozVrxyWfVKVUapXMPihHaBoth8Ke3RMiS32I0qh/pVy1Ip0AOcRKaawXIALdc2QIYDnHGpkiwXBaqy8WulLMv8E9K1AoiZ7VQ6dJvJqF22MQnYQBuTn2WetoG2DFTGGLWBNiY/yzxtA20ZqIwxagNtTH6WedoG2jJQGWPUBtqY/CzztA20ZaAyxqgNtDH5WeZpG2jLQGWMURtoY/KzzNM20JaByhijNtDG5GeZp22gLQOVMUZtoI3JzzJP/x/TofhQjysDtAAAAABJRU5ErkJggg==;" vertex="1" parent="1">
          <mxGeometry x="700" y="440" width="122.01" height="120" as="geometry" />
        </mxCell>
      </root>
    </mxGraphModel>
  </diagram>
</mxfile>
